<?xml version="1.0" standalone="no"?>
<!DOCTYPE svg PUBLIC "-//W3C//DTD SVG 1.1//EN" "http://www.w3.org/Graphics/SVG/1.1/DTD/svg11.dtd" >
<!--
2013-9-30: Created.
-->
<svg>
<metadata>
Created by iconfont
</metadata>
<defs>

<font id="iconfont" horiz-adv-x="1024" >
  <font-face
    font-family="iconfont"
    font-weight="500"
    font-stretch="normal"
    units-per-em="1024"
    ascent="896"
    descent="-128"
  />
    <missing-glyph />
    
    <glyph glyph-name="x" unicode="x" horiz-adv-x="1001"
d="M281 543q-27 -1 -53 -1h-83q-18 0 -36.5 -6t-32.5 -18.5t-23 -32t-9 -45.5v-76h912v41q0 16 -0.5 30t-0.5 18q0 13 -5 29t-17 29.5t-31.5 22.5t-49.5 9h-133v-97h-438v97zM955 310v-52q0 -23 0.5 -52t0.5 -58t-10.5 -47.5t-26 -30t-33 -16t-31.5 -4.5q-14 -1 -29.5 -0.5
t-29.5 0.5h-32l-45 128h-439l-44 -128h-29h-34q-20 0 -45 1q-25 0 -41 9.5t-25.5 23t-13.5 29.5t-4 30v167h911zM163 247q-12 0 -21 -8.5t-9 -21.5t9 -21.5t21 -8.5q13 0 22 8.5t9 21.5t-9 21.5t-22 8.5zM316 123q-8 -26 -14 -48q-5 -19 -10.5 -37t-7.5 -25t-3 -15t1 -14.5
t9.5 -10.5t21.5 -4h37h67h81h80h64h36q23 0 34 12t2 38q-5 13 -9.5 30.5t-9.5 34.5q-5 19 -11 39h-368zM336 498v228q0 11 2.5 23t10 21.5t20.5 15.5t34 6h188q31 0 51.5 -14.5t20.5 -52.5v-227h-327z" />
    

    
    <glyph glyph-name="jinzhi" unicode="&#983220;" d="M512 831.488q92.16 0 173.568-34.816t142.336-95.744 95.744-142.336 34.816-173.568-34.816-173.568-95.744-142.336-142.336-95.744-173.568-34.816-174.08 34.816-142.336 95.744-95.744 142.336-35.328 173.568 35.328 173.568 95.744 142.336 142.336 95.744 174.08 34.816zM707.584 321.536q29.696 0 49.664 18.432t19.968 47.104q0 29.696-19.968 46.08t-49.664 16.384l-392.192 0q-29.696 0-49.664-16.384t-19.968-46.08q0-28.672 19.968-47.104t49.664-18.432l392.192 0z"  horiz-adv-x="1024" />

    
    <glyph glyph-name="shouji" unicode="&#13384;" d="M820.409449 98.771654q0-25.19685-10.07874-46.866142t-27.716535-38.299213-41.322835-26.204724-50.897638-9.574803l-357.795276 0q-27.212598 0-50.897638 9.574803t-41.322835 26.204724-27.716535 38.299213-10.07874 46.866142l0 675.275591q0 25.19685 10.07874 47.370079t27.716535 38.80315 41.322835 26.204724 50.897638 9.574803l357.795276 0q27.212598 0 50.897638-9.574803t41.322835-26.204724 27.716535-38.80315 10.07874-47.370079l0-675.275591zM738.771654 725.669291l-455.559055 0 0-577.511811 455.559055 0 0 577.511811zM510.992126 119.937008q-21.165354 0-36.787402-15.11811t-15.622047-37.291339q0-21.165354 15.622047-36.787402t36.787402-15.622047q22.173228 0 37.291339 15.622047t15.11811 36.787402q0 22.173228-15.11811 37.291339t-37.291339 15.11811zM591.622047 811.338583q0 8.062992-5.03937 12.598425t-11.086614 4.535433l-128 0q-5.03937 0-10.582677-4.535433t-5.543307-12.598425 5.03937-12.598425 11.086614-4.535433l128 0q6.047244 0 11.086614 4.535433t5.03937 12.598425z"  horiz-adv-x="1024" />

    
    <glyph glyph-name="jingxuanshichang" unicode="&#13393;" d="M627.977626 476.225434c119.09417-1.609626 238.185267-3.234714 357.295821-4.859699-4.320563 15.968666-8.659558 31.970099-12.985242 47.956173-94.425395-72.591258-188.872192-145.212314-283.298611-217.802547-9.083187-6.970778-15.551795-17.022669-11.830886-29.056819 35.275878-113.777357 70.511718-227.553587 105.774285-341.313536 12.613837 9.670246 25.217331 19.389645 37.817856 29.076173-98.232218 67.357082-196.461363 134.754099-294.693581 202.115277-6.971085 4.792115-19.035341 4.890419-25.973555 0L208.141824-43.727667c12.618957-9.687654 25.200947-19.373261 37.821952-29.057843 33.73056 114.214298 67.447808 228.459213 101.16311 342.70423 3.554099 11.964518-2.581914 22.152499-11.829862 29.056819-95.382221 71.316275-190.799155 142.631526-286.198784 213.963059-4.321587-16.00041-8.661606-31.986483-12.985242-47.956173 119.059354 3.234714 238.11881 6.450893 357.196595 9.669222 12.030464 0.334643 21.047194 7.725978 24.833638 18.90048 38.34071 112.771379 76.697907 225.542861 115.056026 338.296832l-49.636478 0c39.850189-112.235213 79.714714-224.469402 119.579238-336.723046 11.026534-31.032832 60.796109-17.659187 49.634406 13.689754-39.846093 112.235213-79.728026 224.47145-119.57719 336.723046-8.614502 24.230912-41.238835 24.733286-49.636454 0-38.35607-112.771379-76.713267-225.541837-115.052954-338.295808 8.260506 6.283059 16.522957 12.582605 24.80087 18.884096-119.077786-3.21833-238.137242-6.434509-357.196595-9.668198-27.38176-0.753152-32.77783-33.195008-13.003674-47.974605 95.414886-71.315251 190.831923-142.630502 286.212096-213.945651-3.9552 9.684582-7.874662 19.371213-11.830886 29.055795-33.732608-114.247066-67.446784-228.458189-101.179494-342.70423-6.049997-20.51113 18.950349-42.393498 37.80352-29.072179 97.058406 68.499046 194.083123 136.983859 291.10569 205.485978-15.284736-10.792858-34.48576 7.003546-12.482765-8.079053 11.142246-7.640986 22.268006-15.282074 33.380557-22.919987 33.763328-23.160525 67.547136-46.316851 101.29408-69.476352 49.132954-33.679053 98.231194-67.35913 147.331379-101.074022 18.783539-12.868096 44.272128 8.344064 37.83936 29.087437-35.254374 113.779405-70.532198 227.520922-105.772237 341.297152-3.956224-9.685606-7.909478-19.371213-11.84727-29.054771 94.426419 72.58921 188.871168 145.194906 283.312947 217.800499 19.222528 14.779597 14.782259 47.586816-13.00265 47.956173-119.110554 1.62601-238.202675 3.250995-357.295821 4.860723C594.746368 528.15319 594.798592 476.677734 627.977626 476.225434"  horiz-adv-x="1024" />

    
    <glyph glyph-name="shumashouji" unicode="&#13399;" d="M751.006515 112.540365 255.109431 112.540365l0 683.977863 495.897106 0L751.006537 112.540402zM306.409882 163.837747l393.297246 0L699.707127 745.220948 306.409873 745.220948 306.409873 163.837718 306.409882 163.837747zM548.413235 28.077773c0-23.175885-18.795827-41.946317-41.964442-41.946317-23.169638 0-41.965466 18.770534-41.965466 41.946317 0 23.176909 18.794803 41.981133 41.965466 41.981133C529.617408 70.05993 548.413235 51.255603 548.413235 28.077773M749.293466-109.751398 256.820469-109.751398c-48.086118 0-87.212749 39.143526-87.212749 87.217459L169.607721 794.807297c0 48.083149 39.126733 87.207219 87.212749 87.207219l492.472983 0c48.086118 0 87.213773-39.125094 87.213773-87.207219l0-817.341267C836.506214-70.607872 797.379584-109.751398 749.293466-109.751398zM256.820429 830.716109c-19.805901 0-35.911373-16.104755-35.911373-35.908813l0-817.341267c0-19.804058 16.106496-35.918029 35.911373-35.918029l492.472983 0c19.805901 0 35.913421 16.112947 35.913421 35.918029L785.206832 794.807297c0 19.804058-16.106496 35.908813-35.913421 35.908813L256.820469 830.716109z"  horiz-adv-x="1024" />

    
    <glyph glyph-name="tianmaoxingxiang1" unicode="&#13410;" d="M1032.372019 355.175526l0-124.19765-98.92911 0c8.424243 15.64631 12.63831 32.61481 12.63831 50.905395 0 29.606298-10.29079 55.30153-30.872371 77.082624-20.578509 21.782118-45.672038 33.396634-75.279565 34.83945-2.165453 0.96297-4.151706 1.44384-5.956915 1.44384-1.80521 0-3.909222-0.480973-6.32023-1.44384-29.364941-1.442816-54.276301-13.057434-74.736128-34.83945-20.460851-21.781094-30.689178-47.47735-30.689178-77.082624 0-18.773606 4.091392-35.742003 12.275098-50.905395L317.122281 230.977876c8.425267 15.64631 12.637286 32.61481 12.637286 50.905395 0 29.606298-10.29079 55.30153-30.869299 77.082624-20.580557 21.782118-45.553357 33.396634-74.918298 34.83945-1.686528 0.96297-3.611443 1.44384-5.777818 1.44384-1.924915 0-3.971584-0.480973-6.139085-1.44384-29.604454-1.442816-54.699008-13.057434-75.277517-34.83945-20.580557-21.781094-30.871347-47.47735-30.871347-77.082624 0-17.32864 4.092416-34.299187 12.276122-50.905395L19.614514 230.977876 19.614514 355.175511l0 77.262688 0 0.361227c0 1.924813 0.119706 2.886758 0.361267 2.886758 1.685504 71.486157 16.247706 114.93161 43.688755 130.335437 7.701709 4.574208 15.704269 6.860288 24.008806 6.860288 8.303411 0 15.584563-1.263821 21.843354-3.790336 6.25879-2.528563 12.516557-6.138778 18.775347-10.830643 6.25879-4.694938 10.831155-8.485274 13.71904-11.375104 2.889933-2.886758 5.657088-5.897318 8.305459-9.025536 2.646426-3.129242 6.859469-7.822131 12.637286-14.080717 7.461274-8.664371 13.177651-15.223706 17.149235-19.675136 3.97056-4.454502 9.806746-10.71401 17.509478-18.77463 7.702733-8.063693 14.083277-14.382592 19.136614-18.95465 5.054362-4.573184 11.675341-10.229965 19.858022-16.969523 8.183706-6.739456 15.524147-12.033024 22.024499-15.885824 6.498304-3.851674 14.260326-8.063693 23.286272-12.63575 9.02697-4.573184 17.753088-8.063693 26.176205-10.469478 8.425267-2.40681 17.691648-4.393062 27.802317-5.95671 10.108621-1.564672 20.459827-2.346394 31.051469-2.346394l24.912387 0 133.952176 0 0.359195 0L659.762771 402.111477l25.272605 0c10.59369 0 20.942848 0.781824 31.051469 2.346394 10.110669 1.563648 19.437466 3.611238 27.982438 6.13673 8.544973 2.527539 17.270067 6.078464 26.176205 10.650522 8.90624 4.573184 16.669286 8.785101 23.289344 12.637798 6.61801 3.849728 14.020915 9.205658 22.204621 16.06697 8.182682 6.859264 14.802739 12.574413 19.858022 17.149542 5.053338 4.573184 11.491226 10.950349 19.314688 19.133747 7.824486 8.183398 13.721088 14.502298 17.691648 18.95465 3.973632 4.453478 9.689088 10.892083 17.152307 19.315917 5.294797 6.016 9.146675 10.469478 11.552563 13.357261 2.64745 3.13129 5.354189 6.080512 8.12329 8.846438 2.768179 2.769101 7.399834 6.620774 13.900186 11.554099 6.499328 4.931277 12.818432 8.664371 18.955469 11.190886 6.137037 2.527539 13.419213 3.731968 21.845402 3.610214 8.421171-0.119706 16.365363-2.466202 23.828685-7.039283 27.684659-15.645286 42.36759-59.089818 44.047974-130.335437l0-2.886747 0-0.361227 0-77.262688L1032.372011 355.177263 1032.372019 355.175526zM557.946778 291.271066c3.129446 3.850752 3.610419 7.221453 1.442918 10.107187-2.165453 2.890854-6.377472 4.33367-12.636262 4.33367l-41.521327 0c-6.017331 0-10.171085-1.442816-12.457267-4.33367-2.286182-2.885734-1.984307-6.256538 0.902554-10.107187l11.915878-16.608256c6.017331-8.90583 10.590618-15.162368 13.71904-18.772582 1.686528-1.684378 3.852902-2.527539 6.501376-2.527539 2.886861 0 5.174067 0.843162 6.859469 2.527539 5.295821 7.460966 9.86921 13.718426 13.71904 18.772582L557.946778 291.271066zM218.555392 393.805312l5.416582 0c8.664678-4.57216 15.885414-17.388032 21.662208-38.44864 5.777818-21.062758 8.664678-45.672243 8.664678-73.83255 0-18.534093-1.443942-35.381862-4.332851-50.546176l-64.628528 0c-2.64745 16.125235-3.971584 32.974029-3.971584 50.546176 0 28.161434 2.889933 52.769894 8.66775 73.83255 5.774746 21.06071 13.118259 33.876582 22.022451 38.44864L218.555436 393.805312 218.555392 393.805312zM833.792307 393.805312l6.137019 0c8.666726-4.57216 15.887462-17.450394 21.66528-38.629786 5.774746-21.180416 8.664678-45.732557 8.664678-73.652429 0-17.57225-1.324237-34.420941-3.973632-50.546176l-64.626481 0c-2.40896 14.682419-3.611443 31.530086-3.611443 50.546176 0 28.161434 2.769203 52.831232 8.303411 74.011648 5.536358 21.18144 12.637286 33.938944 21.300941 38.269645L833.79233 393.80439 833.792307 393.805312zM833.792307 393.805312"  horiz-adv-x="1033" />

    
    <glyph glyph-name="diantifanhuidingbu" unicode="&#13426;" d="M959.232307 378.14569l0 30.384008-30.386276 0 0 30.384008-30.384229 0 0-30.384008L868.075516 408.529697l0-30.384008-30.384229 0 0 60.768015 30.384229 0 0 30.384008 30.385253 0 0 30.384008 30.384229 0 0-30.384008 30.386276 0 0-30.384008 30.384229 0 0-60.768015L959.232297 378.14569zM685.763994 408.530739l-91.153711 0 0-60.769039-60.771529 0L533.838754 560.450734l60.771529 0 91.153711 0 0-30.384008 30.386276 0 0-91.152023-30.386276 0L685.763994 408.530696zM655.378739 530.066739l-60.769482 0 0-91.152023 60.769482 0L655.378739 530.066727zM473.067213 347.761664l-151.926263 0L321.14095 378.145665l-30.384229 0 0 151.920038 30.384229 0 0 30.384008 151.926263 0 0-30.384008 30.386276 0 0-151.920038-30.386276 0L473.067213 347.761658zM442.681958 530.066739l-91.155758 0 0-151.920038 91.155758 0L442.681958 530.066727zM199.599923 347.761664l-60.770505 0L138.829418 530.066727 78.058948 530.066727l0 30.384008 182.311516 0 0-30.384008-60.770505 0L199.599959 347.761658z"  horiz-adv-x="1024" />

    
    <glyph glyph-name="wo" unicode="&#983046;" d="M246.0856 134.3089c0 0-115.2594-8.1019-160.427 127.318L85.6586 520.356864c0 0 29.4943 177.493 111.957 177.152 0 0 43.6695-0.341 88.064-141.312l445.44 0c0 0 46.2029 140.971 87.7251 141.3919 0 0 64.5837 21.4835 112.638-176.8909l0-259.072c0 0-18.8713-101.6289-148.48-127.318L246.085632 134.307864z"  horiz-adv-x="1024" />

    
    <glyph glyph-name="tian" unicode="&#983048;" d="M17.2995 4.5384c250.4796 103.4557 394.7837 247.7599 432.896 432.9124L29.555712 437.4508l0 73.535488 432.896 0c0 8.1603 0 16.3205 0 24.4961 0 57.1515 0 130.6235 0 220.4324L86.723584 755.914788 86.723584 829.451264l853.552128 0 0-73.535488L552.307712 755.915776c0-27.2159-1.3763-69.3924-4.096-126.5439 0-54.4317 0-93.9039 0-118.3836l445.167616 0 0-73.535488L560.467968 437.452788c68.0643-215.1035 215.0881-352.5919 441.0716-412.4795-16.3359-27.2323-34.0316-55.8244-53.0883-85.7764-231.424 89.856-377.088 231.4404-436.992 424.7521C459.7156 184.235 314.0516 38.5864 74.4673-73.045 58.1315-48.5335 39.0758-22.6775 17.2995 4.5384z"  horiz-adv-x="1024" />

    
    <glyph glyph-name="mao" unicode="&#983049;" d="M17.2995 531.0986c46.2725 32.6717 88.4797 68.0643 126.6084 106.1919C111.2351 699.8989 70.3877 755.7069 21.3791 804.7309l53.0883 40.832c49.0076-49.0076 88.4961-98.0163 118.4481-147.0239 38.1123 46.2879 66.688 87.1363 85.76 122.5277l57.1679-40.8484c-35.3915-57.1843-70.784-107.5517-106.1765-151.1035C278.6591 522.923 303.1716 362.283 303.1716 147.2113c0-144.3041-51.7284-217.8243-155.1841-220.544-38.1276 0-70.8004 1.3599-98.0163 4.0796-2.7197 27.2323-6.8157 54.4645-12.2563 81.6804 32.6717-5.4395 65.3435-8.1603 98.0163-8.1603 62.6237-2.7197 95.2955 47.6324 98.0163 151.1035 0 68.0643-2.7197 130.688-8.1603 187.8723C173.8435 277.8993 119.3953 222.0749 62.2275 175.787c-13.6315 19.0556-28.6085 39.4721-44.928 61.2639 89.8396 68.0643 155.1841 132.0479 196.0325 191.9519-10.8964 51.7284-24.5125 98.0163-40.8484 138.8483-29.952-32.6717-65.3435-63.9836-106.1765-93.9203C49.9558 492.971 33.62 512.0266 17.2995 531.0986zM331.2671 731.1473l155.199488 0L486.466588 870.01088l73.535488 0 0-138.863616 204.992512 0L764.994588 870.01088l73.535488 0 0-138.863616 163.359744 0 0-69.439488L838.531072 661.707776 838.531072 539.194368l-73.535488 0L764.995584 661.706752 560.003072 661.706752 560.003072 539.194368l-73.535488 0L486.467584 661.706752 331.267072 661.706752 331.267072 731.147264zM372.8036 506.8913l575.295488 0 0-600.704-73.535488 0 0 69.424128L446.339072-24.388572l0-69.424128-73.535488 0L372.803584 506.891264zM446.3391 441.5468l0-172.224512 179.392512 0L625.731612 441.546752 446.339072 441.546752zM446.3391 203.9788l0-171.184128 179.392512 0L625.731612 203.978752 446.339072 203.978752zM874.5636 441.5468 695.171072 441.5468l0-172.224512 179.392512 0L874.563584 441.546752zM695.1711 203.9788l0-171.184128 179.392512 0L874.563612 203.978752 695.171072 203.978752z"  horiz-adv-x="1024" />

    
    <glyph glyph-name="pinpai" unicode="&#983102;" d="M510.86848-30.644224c-3.40992 0-6.821888 0.692224-9.923584 2.367488C373.226496 35.683328 60.955648 313.486336 60.955648 538.860544c0 192.191488 156.649472 262.0416 261.747712 262.0416 84.62336 0 156.541952-60.563456 188.16512-92.173312 31.623168 31.61088 103.54176 92.173312 188.164096 92.173312 105.09824 0 261.752832-69.850112 261.752832-262.0416 0-225.374208-312.274944-503.177216-439.691264-567.13728C517.690368-29.952 514.2784-30.644224 510.86848-30.644224zM322.70336 755.84512c-87.11168 0-216.79616-57.78432-216.79616-216.983552 0-193.444864 273.826816-449.839104 404.962304-521.70752 131.134464 71.86944 404.890624 328.262656 404.890624 521.70752 0 159.199232-129.611776 216.983552-216.726528 216.983552-91.132928 0-170.181632-93.50656-170.806272-94.534656-4.337664-4.965376-10.84416-8.060928-17.357824-8.060928l0 0c-6.513664 0-13.02016 3.095552-17.358848 8.060928C492.886016 662.240256 413.524992 755.84512 322.70336 755.84512z"  horiz-adv-x="1024" />

    
    <glyph glyph-name="tianmaochaoshigouwuche" unicode="&#983103;" d="M293.60128 145.57184c-30.312448 0-54.889472-24.568832-54.889472-54.889472 0-30.32064 24.577024-54.889472 54.889472-54.889472 30.319616 0 54.897664 24.567808 54.889472 54.889472C348.489728 121.003008 323.920896 145.57184 293.60128 145.57184zM629.054464 171.301888c-41.684992 0-75.474944-33.782784-75.474944-75.467776 0-41.689088 33.789952-75.474944 75.474944-75.474944s75.476992 33.785856 75.476992 75.474944C704.531456 137.519104 670.739456 171.301888 629.054464 171.301888zM964.237312 688.147456 964.237312 701.815808c0 21.330944-18.482176 38.621184-41.284608 38.621184L761.675776 740.436992c-2.086912 0-4.117504-0.191488-6.125568-0.473088-15.404032-0.864256-29.400064-10.917888-34.438144-26.399744l-46.355456-131.43552L98.932736 582.12864c-21.330944 0-38.6304-17.293312-38.6304-38.623232l0-11.948032c0-21.338112 17.299456-38.6304 38.6304-38.6304L643.290112 492.926976l-19.065856-54.055936c-0.176128 0-0.345088 0.031744-0.520192 0.031744L140.105728 438.902784c-21.338112 0-38.629376-17.301504-38.629376-38.631424l0-11.948032c0-21.330944 17.291264-38.621184 38.629376-38.621184l452.671488 0-19.539968-55.386112L206.848 294.316032c-22.194176 0-40.188928-17.298432-40.188928-38.629376l0-11.95008c0-21.328896 17.994752-38.629376 40.188928-38.629376l395.982848 0c1.103872 0 2.190336 0.080896 3.269632 0.160768 17.354752-1.337344 33.983488 9.156608 39.574528 26.345472l147.39968 417.910784 129.886208 0c22.801408 0 41.284608 17.292288 41.284608 38.623232L964.237312 688.147456z"  horiz-adv-x="1024" />

    
    <glyph glyph-name="gouwuche2" unicode="&#983157;" d="M767.06828 129.925351 383.346875 129.925351c-27.38572 0-51.461045 18.137079-59.015092 44.459584l-116.169813 404.748301L64.091714 579.133236l0 122.796744 190.325743 0c27.38572 0 51.461045-18.137079 59.015092-44.459584l24.02723-83.712587 520.570189 0c19.243273 0 37.372166-9.021467 48.976458-24.370037 11.604292-15.349593 15.341407-35.251875 10.095939-53.765531l-90.962711-321.035714C818.654168 148.162714 794.530748 129.925351 767.06828 129.925351zM429.602362 252.722094l291.046702 0 56.169277 198.23897-404.113851 0L429.602362 252.722094zM449.069739 1.509632m-62.930261 0a61.497 61.497 0 1 0 125.860523 0 61.497 61.497 0 1 0-125.860523 0ZM701.0681 1.509632m-62.930261 0a61.497 61.497 0 1 0 125.860523 0 61.497 61.497 0 1 0-125.860523 0Z"  horiz-adv-x="1024" />

    
    <glyph glyph-name="saoyisao" unicode="&#983207;" d="M900.583644 745.172853l0-206.341508 51.588959 0 0 232.137011c0 56.423057-51.588959 51.574632-51.588959 51.574632L668.437423 822.542988l0-51.574632 206.351742 0C874.789165 770.968355 900.583644 770.160967 900.583644 745.172853zM126.755404 745.171829c0 24.988114 25.793456 25.795503 25.793456 25.795503l206.353788 0 0 51.574632-232.147244 0c0 0-51.588959 4.847401-51.588959-51.574632l0-232.137011 51.588959 0L126.755404 745.171829zM900.582621 22.929478 900.582621 22.929478c0.001023-25.001417-25.793456-25.806759-25.793456-25.806759L668.4364-2.877281l0-51.574632 232.146221 0c0 0 51.588959-4.810562 51.588959 51.574632L952.17158 229.285313l-51.588959 0L900.582621 22.929478zM126.755404 22.929478 126.755404 229.285313 75.167468 229.285313l0-232.162594c0-56.388265 51.588959-51.572586 51.588959-51.572586l232.148267 0 0 51.572586L152.54886-2.877281C152.54886-2.877281 126.755404-2.068869 126.755404 22.929478zM75.167468 409.847691l877.007181 0 0-51.587935-877.007181 0 0 51.587935Z"  horiz-adv-x="1024" />

    
    <glyph glyph-name="sousuo" unicode="&#983208;" d="M680.728354 244.673791c121.274064 137.208988 116.320239 346.908988-14.939247 478.166427-136.444579 136.433322-357.662913 136.433322-494.094188 0-136.443555-136.442532-136.443555-357.661889 0-494.105445 131.241067-131.253346 340.927763-136.204102 478.149031-14.942317l265.63187-265.63187 30.889521 30.877241L680.728354 244.673791zM649.273968 273.997654l-28.658713-28.668946c-120.345925-105.622596-303.678394-101.031021-418.524049 13.812587-119.651101 119.651101-119.651101 313.648466 0 433.299567C321.742307 812.090938 515.740696 812.090938 635.39282 692.430628 750.211868 577.619766 754.826979 394.343579 649.273968 273.997654z"  horiz-adv-x="1024" />

    
    <glyph glyph-name="goumai" unicode="&#983214;" d="M831.154365 324.271664c24.189935 0 43.814901 19.567661 43.814901 43.786249 0 24.218588-19.62599 43.843554-43.814901 43.843554L553.662377 411.901467l0 52.827159c2.137687 3.709485 3.663436 7.417947 4.632507 11.468193l310.455751 268.363074c17.086144 17.115819 17.086144 44.840254 0 61.95812-17.116843 17.11275-44.868907 17.11275-61.987796 0L509.847475 549.818583 212.90039 806.518013c-17.086144 17.11275-44.843324 17.11275-61.95812 0-17.114796-17.117866-17.114796-44.843324 0-61.95812l310.453704-268.39275c0.968048-4.021593 2.494821-7.758708 4.6366-11.43954l0-52.827159L188.541609 411.900443c-24.189935 0-43.815925-19.62599-43.815925-43.843554 0-24.218588 19.627013-43.786249 43.815925-43.786249l277.491988 0 0-87.62878L188.541609 236.641861c-24.189935 0-43.815925-19.62599-43.815925-43.813878 0-24.24724 19.627013-43.813878 43.815925-43.813878l277.491988 0 0-160.653957c0-24.246217 19.624966-43.813878 43.813878-43.813878 24.188912 0 43.813878 19.567661 43.813878 43.813878L553.661354 149.014104l277.491988 0c24.189935 0 43.814901 19.566638 43.814901 43.813878 0 24.188912-19.62599 43.813878-43.814901 43.813878L553.662377 236.641861l0 87.62878L831.154365 324.270641z"  horiz-adv-x="1024" />

    
    <glyph glyph-name="wo1" unicode="&#983283;" d="M808.854477 520.366807c0 163.997098-134.543276 296.918433-300.536844 296.918433-165.995615 0-300.536844-132.921335-300.536844-296.918433 0-94.696756 45.01831-178.827875 114.873284-233.189993-125.261888-63.085804-213.430974-188.69357-223.198431-334.665129l44.950771 0c10.544147 136.692219 99.246375 257.717619 223.043912 305.83143 39.333844-18.691711 94.296643-34.896788 140.867308-34.896788 46.571688 0 90.499154 10.767228 129.836067 29.455869l30.833239 17.869996 24.970718 16.403598C763.838214 341.538933 808.854477 425.670052 808.854477 520.366807zM508.316609 271.815965c-138.957819 0-251.590062 111.277386-251.590062 248.570285 0 137.251967 112.632243 248.550843 251.590062 248.550843 138.957819 0 251.613598-111.298875 251.613598-248.550843C759.930207 383.095397 652.85554 271.815965 508.316609 271.815965zM762.570337 243.559411l-0.221034-0.312108c-4.907777 4.683672-11.453866 7.633864-18.779715 7.633864-15.117302 0-27.347858-5.746888-27.347858-20.863167 0-10.431583 6.037507-19.178805 14.603603-23.786753l-0.177032-0.268106c82.176604-58.731636 123.620505-147.655921 131.789559-253.452479l54.738695 0C909.319609 70.029192 850.562391 174.668391 762.570337 243.559411z"  horiz-adv-x="1024" />

    
    <glyph glyph-name="shijian" unicode="&#983289;" d="M949.638897 386.242064c0 241.799068-196.006116 437.805184-437.805184 437.805184-241.800092 0-437.806207-196.006116-437.806207-437.805184 0-241.811348 196.006116-437.817464 437.806207-437.817464 99.262748 0 190.149734 33.771151 263.59242 89.425705 3.015683 3.421936 4.999874 7.789407 4.999874 12.698207 0 10.717086-8.692986 19.407002-19.408025 19.407002-5.562692 0-10.513448-2.207271-14.048971-5.944386l-0.246617 0c-65.719794-48.358381-146.610102-77.313853-234.459916-77.313853-218.947618 0-396.469754 177.544649-396.469754 396.482033 0 218.97013 177.522136 396.470777 396.469754 396.470777 218.969107 0 396.469754-177.500647 396.469754-396.470777 0-66.865897-15.692401-129.814578-44.962028-185.110975l0-0.325411c-0.538259-1.845021-1.12359-3.645017-1.12359-5.627161 0-10.719132 8.688893-19.407002 19.407002-19.407002 8.353248 0 15.331173 5.357008 18.055215 12.742209l0-0.135076C931.289993 245.575324 949.638897 313.749006 949.638897 386.242064zM506.813373 619.982596c0 11.527544-9.367345 20.892843-20.917402 20.892843-11.527544 0-20.892843-9.365298-20.892843-20.892843l0-248.508887c0 0-2.520403-42.010813 41.786709-41.785685L731.994971 329.688024c0.068562 0 0.156566-0.045025 0.228197-0.045025 11.546987 0 20.914332 9.364275 20.914332 20.891819s-9.367345 20.892843-20.892843 20.938891L506.79086 371.473709 506.79086 619.846496C506.79086 619.891522 506.813373 619.93757 506.813373 619.982596z"  horiz-adv-x="1024" />

    
    <glyph glyph-name="xinxi" unicode="&#983291;" d="M950.381817 386.240017c0 242.11834-196.265012 438.384375-438.382329 438.384375-242.11834 0-438.382329-196.266036-438.382329-438.384375 0-242.12755 196.263989-438.392562 438.382329-438.392562 99.394754 0 190.403514 33.816177 263.941368 89.542362 3.0208 3.427052 5.004991 7.79964 5.004991 12.716626 0 10.729365-8.701173 19.431561-19.431561 19.431561-5.570879 0-10.529821-2.209318-14.068414-5.950526l-0.248663 0c-65.804728-48.423873-146.803507-77.415161-234.767931-77.415161-219.23619 0-396.992663 177.780009-396.992663 397.002896 0 219.260749 177.756473 396.99471 396.992663 396.99471 219.258703 0 396.99164-177.73396 396.99164-396.99471 0-66.952878-15.712867-129.98547-45.01831-185.352475l0-0.326435c-0.541329-1.849114-1.127683-3.65218-1.127683-5.636371 0-10.731412 8.701173-19.431561 19.431561-19.431561 8.363482 0 15.35164 5.363148 18.080797 12.759605l0-0.135076C932.008354 245.389082 950.381817 313.649745 950.381817 386.240017zM539.389302 498.949009c0 12.668531-10.32516 22.981411-23.038716 22.981411-12.670577 0-22.973224-10.31288-22.973224-22.981411l0-328.054571c0-12.670577 10.302647-22.994714 22.995737-22.994714 12.713556 0 23.016203 10.324136 23.016203 22.994714 0 0.044002-0.044002 0.091074-0.044002 0.134053L539.3453 498.790396C539.3453 498.835422 539.389302 498.901936 539.389302 498.949009zM516.395612 619.56918c-12.895705 0-23.333428-10.392698-23.333428-23.299659 0-12.875239 10.437723-23.310915 23.333428-23.310915 12.849656 0 23.309892 10.4367 23.309892 23.310915C539.705504 609.176482 529.244244 619.56918 516.395612 619.56918z"  horiz-adv-x="1024" />

    
    <glyph glyph-name="xiugaioryijian" unicode="&#983292;" d="M916.823514 483.967806c-12.507872 0-22.648836-10.119475-22.720468-22.603811l0-0.069585c0-0.023536 0-0.023536 0-0.070608 0 0 0-0.023536 0-0.046049l0-402.968771c0-25.109887-20.354584-45.439912-45.437865-45.439912L414.133553 12.769071c-0.022513 0-0.022513 0-0.047072 0L166.98157 12.769071c-25.084305 0-45.438888 20.330024-45.438888 45.439912l0 657.709593c0 25.108864 20.354584 45.438888 45.438888 45.438888l439.051571 0c12.531408 0.022513 22.695908 10.188037 22.695908 22.719444 0 12.554944-10.1645 22.719444-22.695908 22.719444L162.438091 806.796352c-47.688115 0-86.334297-38.647205-86.334297-86.334297l0-222.395136c0-0.023536 0-0.070608 0-0.070608l0-444.332854c0-47.689139 38.647205-86.334297 86.334297-86.334297l690.77057 0c47.689139 0 86.335321 38.646182 86.335321 86.334297L939.543981 461.363995C939.471326 473.848331 929.330362 483.967806 916.823514 483.967806zM494.449787 192.839239l432.257841 432.223049c25.716708 25.694195 23.351847 69.938885-5.293563 98.537224l-40.825824 40.871873c-28.620851 28.64541-72.843028 31.03483-98.558713 5.340635L349.76964 337.506083 494.449787 192.839239zM814.232974 737.535919c9.768481 9.743922 26.5374 8.854669 37.406958-1.990331l40.847314-40.848337c10.844999-10.915607 11.757788-27.662013 1.991354-37.382399l-47.969525-47.968501-79.612199 80.853469L814.232974 737.535919zM812.571125 575.407378 491.193627 253.982808l-80.269162 80.245625 322.034461 322.032414L812.571125 575.407378zM349.558839 336.687438l-44.431955-162.819273c-1.944282-7.121188 0.094144-14.661931 5.245468-19.909445 5.223978-5.152347 12.789281-7.166213 19.885909-5.246491l162.831552 44.408419-33.330106 33.388435-105.726973-28.891004 28.832675 105.787348L349.558839 336.687438z"  horiz-adv-x="1024" />

    
    <glyph glyph-name="zan" unicode="&#983293;" d="M510.340709-4.892171c-23.173792 0-247.254314 180.180685-332.157006 289.301965-58.338686 53.264111-105.562221 152.650679-105.562221 222.732827 0 148.765185 108.952434 269.77626 242.874563 269.77626 81.781608 0 151.191444-67.679425 194.013739-137.605008 42.822294 69.925582 112.207571 137.605008 194.013739 137.605008 133.922129 0 242.874563-121.011074 242.874563-269.77626 0-70.239737-47.445592-169.805384-106.055454-223.182059C754.630505 173.446563 534.862195-4.892171 510.340709-4.892171zM315.497069 730.9315c-108.570741 0-196.887182-100.397594-196.887182-223.788879 0-58.382689 42.059931-145.353482 91.864244-189.903118 1.033539-0.943488 2.022053-1.977028 2.874467-3.098571 83.937714-109.042485 251.138784-234.421031 297.17119-267.923052 48.054459 34.715663 213.05542 161.193239 294.611901 267.451308 0.899486 1.12359 1.888 2.178619 2.964518 3.142573 50.03251 44.663222 92.312452 131.813095 92.312452 190.33086 0 123.391285-88.316441 223.788879-196.885136 223.788879-70.487378 0-137.808646-75.135234-173.241646-149.597133-7.634888-16.033162-33.908274-16.033162-41.543162 0C453.303668 655.796266 385.983423 730.9315 315.497069 730.9315z"  horiz-adv-x="1024" />

    
    <glyph glyph-name="erweima" unicode="&#983306;" d="M423.836543 781.180951l0 0.274246L204.08256 781.455197c-45.911656 0-83.09451-36.932144-83.356476-82.59309l-0.023536 0 0-207.579709c0-2.468215 0.500397-4.782933 1.239224-7.000438 6.678096-39.245839 40.831964-69.164243 82.140789-69.164243L423.836543 415.117718l0 0.237407c38.877449 2.432399 70.477144 31.363312 76.798107 68.926836 0.763386 2.217505 1.289366 4.532223 1.289366 7.000438L501.924016 698.862107l-0.025583 0C501.683539 742.746594 467.244168 778.461003 423.836543 781.180951zM458.038506 502.53979c0-24.14798-19.654642-43.705408-43.88551-43.705408L208.445938 458.834382c-24.230867 0-43.858904 19.557428-43.858904 43.705408L164.587034 694.019823c0 24.149003 19.628036 43.717687 43.858904 43.717687l205.708082 0c24.230867 0 43.88551-19.569708 43.88551-43.717687L458.039529 502.53979zM902.246517 700.888254c-0.215918 42.799782-33.818223 77.644381-76.153424 80.304977l0 0.261966L634.384863 781.455197c-44.790112 0-81.040734-36.037774-81.304747-80.56592l-0.023536 0 0-202.511273c0-2.407839 0.476861-4.673439 1.240247-6.831592 6.487761-38.292118 39.830147-67.472717 80.08906-67.472717l191.70823 0 0 0.226151c37.921681 2.385327 68.734454 30.613228 74.961272 67.246567 0.738827 2.158153 1.216711 4.423753 1.216711 6.831592L902.2721 700.888254 902.246517 700.888254zM859.461061 509.361149c0-23.551392-19.152199-42.643216-42.813085-42.643216L638.678656 466.717933c-23.658839 0-42.834574 19.091824-42.834574 42.643216L595.844082 696.167742c0 23.552415 19.175735 42.643216 42.834574 42.643216l177.969321 0c23.660886 0 42.813085-19.091824 42.813085-42.643216L859.461061 509.361149zM415.680792 356.112859l0 0.260943L201.839473 356.373803c-44.670385 0-80.874959-35.94363-81.114412-80.375585l-0.023536 0 0-201.974038c0-2.420119 0.477884-4.687766 1.215688-6.821359 6.464225-38.181601 39.73498-67.316152 79.922261-67.316152L415.680792-0.113331l0 0.236384c37.824467 2.350534 68.567655 30.529317 74.744331 67.079768 0.762363 2.133593 1.24127 4.40124 1.24127 6.821359L491.666394 275.998217l-0.049119 0C491.402381 318.691575 457.919802 353.46352 415.680792 356.112859zM448.975083 84.95923c0-23.493064-19.127639-42.524512-42.691311-42.524512L212.953601 42.434717c0 0-0.022513 0-0.047072 0l-6.822382 0c-23.563672 0-42.690288 19.031449-42.690288 42.524512L163.393859 271.312498c0 23.469528 19.126616 42.525536 42.690288 42.525536l200.200648 0c23.563672 0 42.691311-19.056008 42.691311-42.525536L448.976106 84.95923zM721.154066 142.879384c-14.741749 0-26.66736-11.508102-26.66736-25.699312l0-51.395554c0-14.228049 11.924587-25.721825 26.66736-25.721825 14.736633 0 26.663266 11.492752 26.663266 25.721825l0 51.395554C747.817332 131.371282 735.891721 142.879384 721.154066 142.879384zM834.775846 168.601208c-14.739702 0-26.665313-11.494799-26.665313-25.697265l0-77.118402c0-14.214746 11.924587-25.701358 26.665313-25.701358 14.763239 0 26.688849 11.487635 26.688849 25.701358l0 77.118402C861.464695 157.105387 849.538061 168.601208 834.775846 168.601208zM834.775846 322.827779c-14.739702 0-26.665313-11.506055-26.665313-25.722848l0-51.395554c0-14.189164 11.924587-25.697265 26.665313-25.697265 14.763239 0 26.688849 11.508102 26.688849 25.697265l0 51.395554C861.464695 311.320701 849.538061 322.827779 834.775846 322.827779zM721.154066 322.804243c-14.741749 0-26.66736-11.507078-26.66736-25.709545L694.486706 194.264705c0-14.192234 11.924587-25.686009 26.66736-25.686009 14.736633 0 26.663266 11.492752 26.663266 25.686009L747.817332 297.094698C747.817332 311.297165 735.891721 322.804243 721.154066 322.804243zM606.050538 194.264705c-14.68956 0-26.640754-11.435447-26.640754-25.663496l0-102.81669c0-14.214746 11.951193-25.701358 26.640754-25.701358 14.787798 0 26.712385 11.487635 26.712385 25.701358L632.762923 168.601208C632.763946 182.829258 620.838336 194.264705 606.050538 194.264705zM606.050538 322.827779c-14.68956 0-26.640754-11.506055-26.640754-25.722848l0-25.709545c0-14.201443 11.951193-25.686009 26.640754-25.686009 14.787798 0 26.712385 11.484565 26.712385 25.686009l0 25.709545C632.763946 311.320701 620.838336 322.827779 606.050538 322.827779z"  horiz-adv-x="1024" />

    
    <glyph glyph-name="shoucang" unicode="&#983316;" d="M509.606998 752.885512c9.082866 0 17.327644-4.840238 20.996197-12.331863l97.262184-197.441814c5.613858-11.403724 16.663518-19.358907 29.438473-21.216207l223.738737-32.552393c8.420787-1.215688 15.604396-6.851035 18.23327-14.254655 2.520403-7.18361 0.595564-15.062044-5.084808-20.586874L730.253304 294.388053c-8.949836-8.751315-12.994965-21.171182-10.916631-33.370015l38.011732-222.060515c1.325182-7.737218-2.165316-15.426341-8.905834-19.978007-4.088108-2.741437-8.861832-4.155646-13.812587-4.155646-4.022617 0-7.999185 0.972141-11.425214 2.740414L528.149307 120.328785c-5.768377 3.006474-12.155854 4.552689-18.542308 4.552689-6.364965 0-12.727882-1.547239-18.518772-4.552689L296.254819 17.651264c-3.559059-1.855254-7.602142-2.828418-11.668761-2.828418-4.861728 0-9.723455 1.459235-13.546527 4.022617-6.961552 4.684696-10.475586 12.419867-9.127891 20.155039l38.011732 222.016513c2.078335 12.198833-1.988284 24.619724-10.939143 33.370015L125.02397 454.556962c-5.635347 5.492084-7.55814 13.348006-5.061272 20.453844 2.63092 7.481392 9.812483 13.116739 18.298761 14.332427l223.674269 32.552393c12.839423 1.857301 23.867594 9.813506 29.481452 21.216207l97.194646 197.396789C492.325403 748.034017 500.590648 752.885512 509.606998 752.885512M509.606998 791.095765c-24.043602 0-45.922912-13.226233-56.177464-33.95637L356.189863 559.697581l-223.674269-32.54216c-22.983457-3.304256-42.100864-18.718317-49.481971-39.659255-7.381108-21.048385-1.812275-44.23241 14.431687-60.033281l163.916257-160.125931-38.011732-222.016513c-3.868097-22.408359 6.03239-44.819788 25.458835-57.94676 10.69662-7.116071 23.204491-10.784624 35.757388-10.784624 10.298554 0 20.663622 2.475378 30.055526 7.337105l194.987926 102.7205L704.662463-16.072815c9.369392-4.861728 19.712971-7.337105 29.990035-7.337105 12.57541 0 25.082258 3.668553 35.778878 10.784624 19.426445 13.126972 29.305443 35.538401 25.460882 57.94676l-38.012755 222.016513 163.937746 160.125931c16.22145 15.812127 21.810748 38.984896 14.408151 60.033281-7.402597 20.940938-26.51898 36.353976-49.503461 39.659255L663.04767 559.697581l-97.240695 197.441814C555.619962 777.868509 533.695626 791.095765 509.606998 791.095765L509.606998 791.095765z"  horiz-adv-x="1024" />

    
    <glyph glyph-name="sanjiao2" unicode="&#983329;" d="M951.1626 76.587562 72.8374 76.587562 511.999488 691.413462Z"  horiz-adv-x="1024" />

    
    <glyph glyph-name="sanjiao1" unicode="&#983330;" d="M511.999488 76.586538 72.8374 691.413462 951.1626 691.413462Z"  horiz-adv-x="1024" />

    
    <glyph glyph-name="sanjiao4" unicode="&#983331;" d="M819.41295 823.164135 819.41295-55.161065 204.586027 384Z"  horiz-adv-x="1024" />

    
    <glyph glyph-name="sanjiao3" unicode="&#983332;" d="M204.58705-55.162088 204.58705 823.163111 819.41295 384.001023Z"  horiz-adv-x="1024" />

    
    <glyph glyph-name="mao1" unicode="&#983336;" d="M904.571469 570.65719c-9.215896 3.685949-17.513886 5.376451-24.883737 5.071506-7.367805-0.311085-14.742772-2.768043-22.115694-7.375991-7.373944-4.605901-13.056364-8.751315-17.046235-12.440333-3.990894-3.683902-7.218402-6.754844-9.67536-9.214872-1.226944-1.839905-3.37691-4.606925-6.451946-8.292873-14.745842-17.196661-26.571169-30.250978-35.480073-39.162952-8.906857-8.904811-21.041222-19.654642-36.395932-32.252565-15.363919-12.593829-31.643698-21.656229-48.845475-27.181059-17.200754-5.53097-35.939537-8.296967-56.214303-8.296967l-21.192671 0L511.999488 431.511083l-113.351628 0-22.115694 0c-16.584724 0-32.865525 2.613524-48.839335 7.833409-15.972786 5.222955-29.179576 10.595312-39.628556 16.125259-10.443863 5.53097-22.727631 15.050788-36.860513 28.568662-14.128789 13.515828-23.804149 23.191188-29.027104 29.025057-5.218862 5.836939-14.897292 17.048281-29.027104 33.634028-5.53097 7.986905-15.357779 15.821337-29.491685 23.500227-14.128789 7.68196-28.873608 7.835456-44.231387 0.459464-24.572652-17.200754-36.860513-54.061266-36.860513-110.578468l0-2.762927 0-0.921999 0-65.427128 0-119.79334 0-9.215896c1.227967-23.959691 6.91141-41.156352 17.050328-51.603285 10.137895-10.44284 24.419156-16.585747 42.849924-18.430768 3.900843 0.025583 4.491291 0.278339 8.674567 0l722.248492 0c4.443196 0.278339 5.776563-0.01842 9.0624 0 19.046798 1.847068 33.329083 7.987928 42.854017 18.430768 9.507538 10.446933 14.888082 27.643594 16.127306 51.603285l0 9.215896L941.433004 390.966669l0 65.427128 0 0.921999 0 2.762927C941.431981 517.823891 929.14105 554.684404 904.571469 570.65719zM242.91089 236.156814c-25.188682 3.686972-46.077432 14.282285-62.662155 31.787984-16.590863 17.511839-24.883737 38.860053-24.883737 64.048735 0 25.181519 9.215896 47.14781 27.647687 65.8825 18.430768 18.74083 39.934524 28.109198 64.508199 28.109198-7.985882-1.227967-14.745842-11.059893-20.270672-29.488615-5.531993-18.430768-8.299013-40.545438-8.299013-66.349127C218.950176 283.461189 226.938104 252.130623 242.91089 236.156814zM320.782446 267.48738c-16.895809-17.201777-37.937031-27.643594-63.125713-31.330566 7.369851 5.529947 13.052271 16.894785 17.050328 34.093493 3.990894 17.201777 5.989411 37.171598 5.989411 59.896158 0 26.41665-2.610454 48.536436-7.834432 66.351174-5.218862 17.816784-11.824303 27.644617-19.811208 29.488615 25.799596 0 47.76384-9.214872 65.887616-27.64564 18.125823-18.429745 27.187199-40.549531 27.187199-66.347081C346.124624 306.19189 337.674161 284.688133 320.782446 267.48738zM484.813313 346.736305c2.148943 2.456958 5.376451 3.685949 9.677407 3.685949l35.015491 0c5.529947 0 9.367345-1.227967 11.519358-3.685949 2.15099-2.455935 1.687432-5.223978-1.382487-8.292873l-10.136871-13.82282-11.05887-16.58984c-1.220804-1.226944-3.370771-1.839905-6.448876-1.839905-3.074012 0-4.607948 0.613984-4.607948 1.839905-0.61603 0.618077-1.690502 2.152013-3.226484 4.607948-1.533936 2.456958-3.072989 4.608971-4.606925 6.452969-1.533936 1.839905-3.224438 3.684926-5.067412 5.528923l-10.136871 13.82282C482.507804 341.511303 482.662323 344.279347 484.813313 346.736305zM613.3682 224.173898c-3.074012-6.751774-10.905374-11.516288-23.502273-14.278191-12.593829-2.76395-25.954115-2.15099-40.083927 1.845021-14.133905 3.989871-24.266683 11.822257-30.41266 23.49511-0.610914 0.61603-0.921999 1.532913-0.921999 2.759857-1.839905 1.847068-3.990894 2.768043-6.448876 2.768043-1.845021 0-3.684926-0.919952-5.528923-2.768043-1.227967-1.226944-1.846044-2.14485-1.846044-2.759857-6.141884-12.282744-16.127306-20.423145-29.951149-24.419156-13.821797-3.993964-26.876114-4.454452-39.163975-1.379417-12.283768 3.066849-20.577664 7.985882-24.87862 14.736633l0 11.06194c3.684926-3.686972 10.290367-7.218402 19.811208-10.596336 9.522887-3.37998 20.580734-4.14746 33.175587-2.303462 12.593829 1.837858 22.269189 8.596795 29.027104 20.267603 4.29277 7.374968 6.747681 15.669888 7.370875 24.882714 1.228991 6.14086 1.845021 11.363815 1.845021 15.667841l20.274766 0c0-7.375991 0.305969-12.592806 0.916882-15.667841 0.61603-1.845021 1.692548-5.835915 3.226484-11.977799 1.540076-6.147 2.920516-10.443863 4.148483-12.904914 7.987928-10.4367 18.279319-16.736173 30.874171-18.885116 12.593829-2.153036 23.496134-1.847068 32.713053 0.920976 9.214872 2.759857 15.666818 6.29538 19.35379 10.597359L613.367177 224.173898zM765.420245 236.156814c-23.960715 3.687996-44.542472 14.434757-61.743226 32.252565-17.202801 17.812691-25.802666 39.012526-25.802666 63.585177 0 25.181519 9.366322 47.14781 28.106128 65.8825 18.736736 18.74083 40.697911 28.109198 65.88864 28.109198-8.599865-1.843998-15.512299-11.519358-20.73423-29.031197-5.221932-17.507746-7.829316-39.775912-7.829316-66.807568C743.305575 282.232199 750.674403 250.901633 765.420245 236.156814zM844.206636 267.48738c-16.276708-17.201777-37.318954-27.643594-63.123666-31.330566 7.373944 5.529947 13.057387 16.894785 17.046235 34.093493 3.997034 17.201777 5.990434 37.171598 5.990434 59.896158 0 26.41665-2.609431 48.536436-7.829316 66.351174-5.222955 17.816784-12.134365 27.644617-20.73423 29.488615 26.417673 0 48.53439-9.214872 66.346057-27.64564 17.818831-18.429745 26.723641-40.549531 26.723641-66.347081C868.627838 306.19189 860.488461 284.688133 844.206636 267.48738z"  horiz-adv-x="1024" />

    
    <glyph glyph-name="weixuanzhongyuanquan" unicode="&#983337;" d="M510.44304-44.315042c-237.326197 0-430.396447 193.21249-430.396447 430.695253 0 237.502206 193.07025 430.717765 430.396447 430.717765 237.303684 0 430.40668-193.236026 430.40668-430.717765C940.84972 148.898471 747.791749-44.315042 510.44304-44.315042zM510.44304 771.585409c-212.213239 0-384.861368-172.782182-384.861368-385.182686 0-212.403574 172.647105-385.161197 384.861368-385.161197 212.224496 0 384.870578 172.782182 384.870578 385.161197C895.314641 598.803227 722.667535 771.585409 510.44304 771.585409z"  horiz-adv-x="1024" />

    
    <glyph glyph-name="huidaodingbu" unicode="&#983340;" d="M754.42175 360.369813 534.314727 580.958814c-3.136433 4.727675-7.768941 8.646937-13.719466 10.728342-3.183506 1.249457-6.563486 1.812275-9.993608 1.738597-0.24457 0-0.442068 0.12382-0.697895 0.12382-0.331551 0-0.600681-0.148379-0.932232-0.170892-3.342118 0.047072-6.638187-0.466628-9.711176-1.665942-6.05081-2.105964-10.751878-6.075369-13.912871-10.924817L265.432837 360.369813c-10.201339-10.191106-9.406231-27.53103 1.727341-38.653345 11.144828-11.118222 27.947516-11.412934 38.151925-1.223874 0.806365 0.832971 1.603521 1.372254 2.276856 2.303462l173.826977 173.521009 0.282433-413.372725c-0.159636-1.079588 0-1.959631 0-3.039219 0-13.568017 12.076036-24.591071 27.838022-24.591071s28.54615 11.023054 28.54615 24.591071l0.295735 416.411945 173.862793-173.521009c0.686638-0.931209 1.469468-1.470491 2.304486-2.303462 10.188037-10.18906 26.991748-9.894348 38.136575 1.223874C763.829004 332.838783 764.612856 350.178707 754.42175 360.369813zM865.262184 686.05236c0-13.851473-11.220552-25.082258-25.083282-25.082258L179.665451 660.970102c-13.852496 0-25.083282 11.231809-25.083282 25.082258l0 0c0 13.852496 11.230786 25.083282 25.083282 25.083282l660.513452 0C854.041632 711.135642 865.262184 699.904857 865.262184 686.05236L865.262184 686.05236z"  horiz-adv-x="1024" />

    
    <glyph glyph-name="gouwuchexuanzhong" unicode="&#983345;" d="M925.716045 612.744751c0.314155 1.439792 0.898463 2.787486 0.898463 4.317329 0 1.304715-0.538259 2.428306-0.741897 3.689019-0.065492 0.448208-0.178055 0.854461-0.290619 1.348718-0.564865 2.562359-1.486864 4.946662-2.814092 7.105838-0.26913 0.405229-0.536212 0.810459-0.830925 1.214664-1.391696 2.0241-3.012613 3.687996-4.946662 5.173836-0.607844 0.494257-1.284249 0.899486-1.955538 1.349741-1.798972 1.079588-3.667529 1.888-5.756097 2.472308-0.607844 0.225127-1.035586 0.63138-1.664919 0.76748-0.74292 0.134053-1.417279-0.047072-2.137687 0.042979-0.901533 0.091074-1.685385 0.494257-2.610454 0.494257L360.149035 640.720919l-100.612489-0.078795-28.89919 89.763396-0.091074-0.046049c-2.405793 10.211573-11.175527 17.047258-21.115923 17.85567-0.540306 0.135076-0.944512 0.49528-1.484817 0.584308l0.023536 0.091074-83.141582 15.246239-0.021489-0.225127c-12.95301 2.025123-25.052582-6.789637-27.120684-19.74367-2.070148-12.909008 6.79066-25.007557 19.744693-27.03268l71.177086-13.042037 123.102712-379.922892-56.42408-140.734278 0.089028-0.090051c-0.472767-0.629333-0.561795-1.394766-0.988514-2.068102-0.899486-1.528819-1.664919-3.013637-2.204202-4.722558-0.494257-1.526773-0.741897-3.01159-0.920976-4.542456-0.112564-0.89744-0.539282-1.708921-0.539282-2.608407 0-0.63138 0.291642-1.125637 0.336668-1.708921 0.1361-1.708921 0.517793-3.327792 1.01205-4.948709 0.405229-1.302669 0.741897-2.608407 1.349741-3.821025 0.719384-1.484817 1.731434-2.744507 2.788509-4.093225 0.853437-1.079588 1.709945-2.112104 2.719948-3.057639 0.563842-0.449231 0.855484-1.079588 1.417279-1.528819 0.899486-0.675382 1.979074-0.855484 2.946099-1.350764 1.103124-0.629333 2.182712-1.211595 3.396353-1.61887 1.934049-0.673335 3.867074-1.033539 5.91471-1.213641 0.629333-0.046049 1.190105-0.360204 1.866511-0.360204l0-0.090051 593.0919 0 0 0.180102c13.110599 0 23.747867 10.658757 23.747867 23.701818 0 13.087063-10.638291 23.703865-23.747867 23.703865L317.399395 193.198419l36.007075 103.497189 2.156106-6.840802 92.113931-0.1361 341.14982 0 0 0.224104c0.945535 0 1.732457 0.405229 2.610454 0.539282 0.155543-0.044002 0.26913-0.180102 0.427742-0.180102 12.794397-2.832512 25.478278 5.218862 28.313859 17.99177l0.11154 0 104.009865 298.918997c0.314155 0.674359 0.494257 1.393743 0.741897 2.113127l0.900509 2.607384-0.225127 0.045025C925.780513 612.250494 925.668972 612.475622 925.716045 612.744751zM403.507542 89.47815c-23.725354 0-42.954301-19.203364-42.954301-42.86118s19.228947-42.819225 42.954301-42.819225c23.74889 0 42.953278 19.161409 42.953278 42.819225S427.256432 89.47815 403.507542 89.47815zM731.007481 89.47815c-23.700795 0-42.952254-19.203364-42.952254-42.86118s19.250436-42.819225 42.952254-42.819225c23.747867 0 42.976814 19.161409 42.976814 42.819225S754.755348 89.47815 731.007481 89.47815z"  horiz-adv-x="1024" />

    
    <glyph glyph-name="shanchu" unicode="&#983370;" d="M881.960495 744.539426c-4.307096 0-4.307096 0-23.591301-0.022513-25.720801-0.01228-25.720801-0.01228-62.183248-0.035816-64.289212-0.033769-104.896048-0.080841-164.925237-0.125867-3.612271 0-5.487991 1.330298-11.205203 9.144264-0.163729 0.230244-8.612145 12.234649-11.712763 16.251126-21.902846 28.417213-49.497321 43.279712-94.605681 43.2572-45.1452-0.022513-74.650187-15.232936-96.829326-43.049468-4.745071-5.949502-15.811104-22.23542-16.749476-23.474644-2.047636-2.672876-1.539053-2.325975 0.568958-2.313695-20.361747-0.023536-20.361747-0.023536-40.895409-0.047072-28.77844-0.022513-59.023278-0.058328-90.230024-0.103354-36.3243-0.058328-48.350195-0.105401-81.953524-0.162706-18.86772-0.034792-18.86772-0.034792-31.774681-0.046049-9.561773-0.011256-9.561773-0.011256-11.621688-0.011256-12.663414-0.022513-22.896476-10.314926-22.884197-22.966061 0.022513-12.652158 10.302647-22.895453 22.953781-22.87294 2.072195 0 2.072195 0 11.609409 0.022513 12.919241 0.011256 12.919241 0.011256 31.785937 0.046049 33.614585 0.058328 45.630247 0.104377 81.941244 0.150426 31.206746 0.046049 61.45363 0.081864 90.218768 0.116657 20.533662 0.022513 20.533662 0.022513 40.884153 0.045025 15.256472 0.01228 25.904996 7.408737 35.755342 20.246113 2.130524 2.75474 12.873192 18.578124 16.229636 22.803355 13.751189 17.234523 30.29191 25.778106 60.991096 25.789363 30.222325 0.01228 44.737924-7.800663 58.281381-25.39539 2.384303-3.091408 10.41828-14.46955 11.090593-15.406898 13.495362-18.392906 26.690896-27.885094 47.620577-27.862581 60.584843 0.046049 101.190657 0.092098 165.479869 0.13917 36.462446 0.022513 36.462446 0.022513 62.183248 0.034792 19.284205 0.022513 19.284205 0.022513 23.591301 0.022513 12.662391 0.01228 22.89443 10.266831 22.89443 22.930245C904.855948 734.295108 894.601396 744.550683 881.960495 744.539426zM532.893354 80.773907l0 485.876016c0 12.663414-10.254551 22.918989-22.906709 22.918989-12.652158 0-22.918989-10.255575-22.918989-22.918989l0-485.876016c0-12.685927 10.266831-22.918989 22.918989-22.918989C522.63778 57.853895 532.893354 68.086957 532.893354 80.773907zM878.85783 539.423839c0.093121 15.394618 0 15.394618 0 18.775622 0.093121 12.663414-7.824199 22.976294-20.487613 23.045879-12.663414 0.069585-24.261567-10.140964-24.353664-22.792099 0-3.391237 0.092098-3.391237 0-18.786878-0.095167-20.615527 0.160659-20.615527 0-50.110281-0.278339-52.203966 0.252757-105.521289 0-156.811442-0.071631-15.419178 0.092098-15.419178 0-30.975479-0.626263-130.246413-0.997724-218.958874-0.997724-247.249197 0-21.437242-5.115508-38.893822-17.638729-44.358277-7.432273-3.193739-17.59575-2.731204-23.86964-2.405793-0.347924 0-2.430352 0-2.430352 0-3.634784-0.047072-3.634784 0.184195-20.186761 0-16.114003-0.234337-34.218336 0.229221-53.848419 0-56.164161-0.696872-113.578802 0.647753-168.908968 0-17.873066-0.187265-17.873066 0.184195-35.778878 0-139.230018-1.574868-234.864122 0-266.87007 0-26.009374 0-38.650275 8.05649-44.773739 21.851681-3.403516 7.688099-4.399193 16.299221-3.946892 23.104207 0.046049 0.602727 0 2.963495 0 2.963495L194.76638 556.832324c0.057305 12.663414-7.847735 22.966061-20.512173 23.023366-12.651135 0.058328-25.164123-10.162454-25.221428-22.813588L149.03278 58.502671c-0.104377-0.831948 0.151449-0.831948 0-2.7793-0.8913-13.518898 0.902556-29.169343 7.79043-44.726667 13.554714-30.511921 42.712801-49.078789 86.663802-49.078789 32.249495 0 127.896902-1.574868 267.378653 0 17.955954 0.185218 17.955954-0.184195 35.803437 0 55.329143 0.647753 112.743784-0.695848 168.930457 0 19.632129 0.232291 37.736463-0.184195 53.848419 0 13.566994 0.160659 16.018835 0.021489 18.452257 0l-0.626263 0c14.676257-0.741897 27.988448 0.232291 42.920532 6.758937 29.055756 12.593829 48.663326 45.977147 48.663326 85.844134 0 28.198226-0.624217 116.864638 0 247.063979 0.093121 15.511275-0.047072 15.511275 0 30.931476 0.25378 51.290153-0.277316 104.59315 0 156.809395C878.998023 518.819568 878.742197 518.819568 878.85783 539.423839zM372.494201 130.778788 372.494201 471.534636c0 12.652158-10.267854 22.907733-22.918989 22.907733s-22.918989-10.254551-22.918989-22.907733L326.656223 130.778788c0-12.68695 10.266831-22.917966 22.918989-22.917966S372.494201 118.090814 372.494201 130.778788zM670.384775 108.184187c0-12.640901 10.279111-22.917966 22.920012-22.917966 12.663414 0 22.917966 10.278087 22.917966 22.917966L716.222753 306.447716c0 12.640901-10.254551 22.917966-22.917966 22.917966-12.641925 0-22.920012-10.278087-22.920012-22.917966L670.384775 108.184187zM693.305811 399.777335c12.663414 0 22.917966 10.267854 22.917966 22.918989l0 86.954421c0 12.653181-10.254551 22.920012-22.917966 22.920012-12.641925 0-22.920012-10.266831-22.920012-22.920012l0-86.954421C670.384775 410.046213 680.663886 399.777335 693.305811 399.777335z"  horiz-adv-x="1024" />

    
    <glyph glyph-name="jinzhitishi" unicode="&#58962;" d="M504.533958-72.241069c-62.755276 0-123.643018 12.295024-180.972724 36.543288-55.364959 23.417339-105.08229 56.93778-147.773601 99.628068-42.691311 42.691311-76.210729 92.409666-99.628068 147.772578C51.9113 269.033595 39.616276 329.921337 39.616276 392.676613S51.9113 516.319631 76.159564 573.648314c23.417339 55.364959 56.936757 105.08229 99.628068 147.773601 42.691311 42.691311 92.409666 76.210729 147.773601 99.628068 57.329706 24.248264 118.217449 36.543288 180.972724 36.543288 62.755276 0 123.643018-12.295024 180.971701-36.543288 55.364959-23.417339 105.081267-56.936757 147.772578-99.628068s76.210729-92.409666 99.626022-147.773601c24.248264-57.328683 36.543288-118.217449 36.543288-180.972724s-12.295024-123.643018-36.543288-180.971701c-23.416316-55.364959-56.935734-105.08229-99.626022-147.773601s-92.408643-76.211752-147.772578-99.628068C628.176976-59.946045 567.289234-72.241069 504.533958-72.241069zM504.533958 820.019515c-57.69912 0-113.662713-11.296277-166.335353-33.5757-50.885947-21.522176-96.589872-52.338019-135.841851-91.591021-39.253002-39.251979-70.068845-84.955904-91.591021-135.841851-22.278399-52.67264-33.574676-108.636233-33.574676-166.335353 0-57.69912 11.296277-113.662713 33.574676-166.335353 21.523199-50.884924 52.338019-96.588849 91.591021-135.840828 39.251979-39.251979 84.955904-70.068845 135.841851-91.591021 52.67264-22.278399 108.636233-33.5757 166.335353-33.5757 57.69912 0 113.661689 11.296277 166.334329 33.5757 50.885947 21.522176 96.588849 52.338019 135.840828 91.591021 39.251979 39.251979 70.067822 84.955904 91.589998 135.840828 22.278399 52.673663 33.574676 108.636233 33.574676 166.335353s-11.295254 113.662713-33.574676 166.335353c-21.522176 50.885947-52.338019 96.589872-91.589998 135.841851-39.251979 39.253002-84.955904 70.068845-135.840828 91.591021C618.195647 808.724261 562.233078 820.019515 504.533958 820.019515zM817.651328 373.488599 176.548972 373.488599c-10.376325 0-18.786878 8.411577-18.786878 18.786878s8.411577 18.786878 18.786878 18.786878l641.102357 0c10.376325 0 18.786878-8.411577 18.786878-18.786878S828.027653 373.488599 817.651328 373.488599z"  horiz-adv-x="1024" />

    
    <glyph glyph-name="fenxiang" unicode="&#983405;" d="M875.333052 343.667409c-17.381879 0-31.476899-14.083763-31.582299-31.472805l0-0.155543c0 0 0 0 0-0.047072l0-220.847897c0-17.896602-14.440897-32.358989-32.264844-32.358989L172.891675 58.785104c-17.815761 0-32.241308 14.45727-32.241308 32.358989L140.650367 641.349229c0 17.894555 14.439874 32.383548 32.241308 32.383548l298.973232 0c17.445324 0.034792 31.535227 14.177907 31.535227 31.652907 0 17.483186-14.104229 31.651884-31.535227 31.651884L168.641885 737.037569c-50.360991 0-91.178629-40.925085-91.178629-91.38943l0-558.753837c0-50.471508 40.820708-91.415013 91.178629-91.415013l647.092791 0c50.357921 0 91.180676 40.943504 91.180676 91.415013L906.915351 312.155718C906.844743 329.57546 892.720048 343.667409 875.333052 343.667409zM937.013857 560.175465l-206.523657 207.157083-8.005324 6.593162c-4.556783 2.381234-10.184967 3.292999-15.497972 3.292999-18.075681 0-32.732495-14.697747-32.732495-32.803103 0-5.333472 3.105734-13.644765 5.498224-18.213827l141.602042-142.967132L675.756621 583.234647c-221.524303-27.526937-302.548664-144.17668-322.964646-415.066297-0.028653-18.86158 14.633279-33.57877 32.703843-33.57877 14.392802 0 27.443026 12.673647 31.812543 25.645077 20.424168 243.485477 77.827553 337.180416 259.588223 357.409133l144.467299-0.053212L684.120103 379.950777l-5.925966-7.506974c-2.264577-4.474918-3.140527-10.106172-3.140527-15.269775 0-18.081821 14.656815-32.803103 32.708959-32.803103 4.581342 0 12.685927 2.552126 16.746406 4.373611l212.502835 211.896015 9.101285 9.135054L937.013857 560.175465z"  horiz-adv-x="1024" />

    
    <glyph glyph-name="cart" unicode="&#983409;" d="M354.778212 74.895013c-34.091446 0-61.703317-27.611871-61.703317-61.703317 0-34.091446 27.611871-61.703317 61.703317-61.703317s61.703317 27.611871 61.703317 61.703317C416.48153 47.283142 388.868635 74.895013 354.778212 74.895013L354.778212 74.895013zM786.701432 74.895013c-34.091446 0-61.703317-27.611871-61.703317-61.703317 0-34.091446 27.611871-61.703317 61.703317-61.703317s61.703317 27.611871 61.703317 61.703317C848.40475 47.283142 820.792878 74.895013 786.701432 74.895013L786.701432 74.895013zM847.911516 105.746672l-501.123278 0c-44.457538 0-83.546811 35.171034-88.976474 80.060407l-52.324716 368.368742-29.772071 172.151825c-1.851161 15.025205-15.549138 27.303856-28.939099 27.303856l-39.305191 0c-17.029862 0-30.851659 13.821797-30.851659 30.851659s13.821797 30.851659 30.851659 30.851659l39.305191 0c45.01217 0 84.533278-35.171034 89.994664-80.060407l29.709649-171.504072 52.540633-369.942587c1.727341-14.31503 14.685467-26.377764 27.76639-26.377764l501.123278 0c17.060561 0 30.851659-13.791098 30.851659-30.851659C878.763175 119.537769 864.972077 105.746672 847.911516 105.746672zM385.351532 229.153306c-16.011672 0-29.556153 12.341073-30.727839 28.599362-1.264806 16.999163 11.508102 31.776727 28.476565 33.010835l418.533258 30.851659c15.363919 0.092098 28.322046 12.155854 30.018687 25.88453l48.591695 278.035364c1.234107 10.366092-1.635243 21.719674-7.836479 28.753881-3.979638 4.504594-8.977465 6.78759-14.809287 6.78759l-534.165836 0c-17.029862 0-30.851659 13.821797-30.851659 30.851659s13.821797 30.851659 30.851659 30.851659l534.165836 0c23.570835 0 45.228087-9.779737 60.994166-27.581172 18.017352-20.331048 26.285666-48.992831 22.676465-78.70248l-48.622394-278.066063c-5.244444-43.25413-44.303019-78.425164-88.760556-78.425164l-416.250262-30.759561C386.863978 229.184005 386.092405 229.153306 385.351532 229.153306z"  horiz-adv-x="1024" />

    
    <glyph glyph-name="mine" unicode="&#983426;" d="M909.941268-12.539338c-7.472182 111.620194-62.636572 215.4694-151.337777 284.933471l-5.332449 3.682879-0.048095-0.071631c-5.0449 3.084245-10.79588 4.734838-16.714683 4.734838-20.337187 0-32.472576-9.804297-32.472576-26.231431 0-9.564843 4.423753-18.555611 11.847839-24.653493l-0.083911-0.143263 4.710278-3.371794c74.389244-53.1802 116.27112-133.834124 124.472919-239.763712l0.088004-1.155313c-0.073678-0.890276-0.12075-1.787716-0.12075-2.696412 0-17.900695 14.511505-32.413224 32.413224-32.413224 17.300015 0 31.431873 13.554714 32.361035 30.622438l0.644683 0L909.941268-12.539338zM805.554826 530.33995c0 161.142074-132.674719 292.25011-295.765167 292.25011S214.023468 691.482023 214.023468 530.33995c0-86.823438 38.390355-167.813007 105.678878-223.647663-120.791064-64.466244-200.967104-187.445136-210.041784-323.216379l-0.373507-5.659907c-0.007163-0.11768-0.017396-0.233314-0.023536-0.352017l-0.033769-0.515746 0.020466 0c-0.008186-0.275269-0.020466-0.550539-0.020466-0.827855 0-15.176654 12.30321-27.480888 27.480888-27.480888 15.176654 0 27.480888 12.30321 27.480888 27.480888 0 0.277316-0.01228 0.552585-0.020466 0.827855l0.571005 0 0.430812 5.643534c9.958816 129.028679 91.737354 242.011916 208.630644 288.568255 34.898835-16.21224 88.175225-33.093722 135.962601-33.093722 44.273343 0 87.266529 9.756201 128.203894 29.220508l29.984918 17.407462 24.485671 16.068977C764.318656 356.715587 805.554826 440.407708 805.554826 530.33995zM509.788635 296.912549c-130.319068 0-236.332567 104.734366-236.332567 233.450936 0 128.694057 106.013499 233.403864 236.332567 233.403864 130.331347 0 236.357126-104.709807 236.357126-233.403864C746.145761 401.645892 640.119983 296.912549 509.788635 296.912549z"  horiz-adv-x="1024" />

    
    <glyph glyph-name="wodezichan" unicode="&#983441;" d="M787.010471 805.313581l-274.323832-264.24836 0 0-0.008186 0-0.230244-0.185218L238.275825 805.091524c-55.30356 53.384861-133.023666-21.037129-77.637218-74.385151L417.277662 483.41522 258.098289 483.41522c-78.383208 0-78.267575-105.801674 0-105.801674l199.584618 0 0-75.022671L258.098289 302.590875c-78.383208 0-78.267575-105.801674 0-105.801674l199.584618 0 0-194.46297c0-37.808094 27.5341-56.715723 54.994522-56.642045l0 0 0.004093 0 0.004093 0 0 0c27.381627 0.077771 54.764278 18.990516 54.764278 56.642045L567.449893 196.787154l199.815885 0c78.387301 0 78.271668 105.801674 0 105.801674L567.450916 302.588829l0 75.022671 199.815885 0c78.387301 0 78.271668 105.801674 0 105.801674L608.169293 483.413174l256.407788 247.069095C920.190703 783.942855 842.243423 858.586902 787.010471 805.313581z"  horiz-adv-x="1024" />

    
    <glyph glyph-name="shoujishumadiannao" unicode="&#58922;" d="M191.90624 621.047993l641.318274 0 0-448.933639L191.90624 172.114354 191.90624 621.047993 191.90624 621.047993zM868.691283 750.190259 156.493705 750.190259c-50.994418 0-92.339058-41.434691-92.339058-92.553952l0-520.745175c0-51.116191 41.336454-92.553952 92.339058-92.553952l223.89428 0 0-127.747499L222.537887-83.41032c-17.569144 0-31.81152-14.246469-31.81152-31.807427 0-17.569144 14.242376-31.815613 31.81152-31.815613L800.750915-147.033359c17.569144 0 31.815613 14.246469 31.815613 31.815613 0 17.560958-14.246469 31.807427-31.815613 31.807427L641.028167-83.41032 641.028167 44.336156l227.66414 0c50.998511 0 92.342128 41.437761 92.342128 92.553952L961.034435 657.636307C961.033411 708.747381 919.689794 750.190259 868.691283 750.190259L868.691283 750.190259zM898.61071 107.441403 127.961882 107.441403 127.961882 684.522654l770.647805 0L898.609687 107.441403 898.61071 107.441403zM898.61071 107.441403"  horiz-adv-x="1024" />

    
    <glyph glyph-name="31xuanzhong" unicode="&#983478;" d="M820.113403 691.760362c-169.888272 169.918971-446.339558 169.918971-616.22783 0-169.921018-169.890318-169.921018-446.339558 0-616.22783 169.888272-169.921018 446.339558-169.921018 616.22783 0C990.035444 245.420805 990.035444 521.869021 820.113403 691.760362zM769.710456 497.188922 477.206566 185.787636c-1.832741-1.704828-3.759627-2.842745-5.183046-3.664459-1.579985-1.043772-2.685155-1.928932-4.297886-2.592035-3.697205-1.579985-7.614421-2.368954-11.722996-2.368954-3.76065 0-7.458879 0.694825-11.06194 2.085498l-3.476171 2.02103c-1.865487 0.980327-3.886517 2.023076-5.815449 3.729951l0 0.063445c-0.125867 0.094144-0.252757 0.220011-0.3776 0.346901l-0.980327 0.946558L268.257673 349.957673c-5.752004 5.626137-9.005095 13.20986-9.069563 21.268396-0.030699 8.119935 3.034103 15.737426 8.721639 21.519106 11.376095 11.502985 31.318286 11.598152 42.819225 0.252757l144.45195-142.30096 270.475178 287.952224c10.965749 11.661597 31.126928 12.294001 42.757826 1.359974 5.909593-5.593392 9.322319-13.115716 9.543354-21.23565C778.178315 510.714983 775.271102 503.03507 769.710456 497.188922z"  horiz-adv-x="1024" />

    
    <glyph glyph-name="31yiguanzhudianpu" unicode="&#983479;" d="M820.113403 691.760362c-169.888272 169.918971-446.339558 169.918971-616.22783 0-169.921018-169.890318-169.921018-446.339558 0-616.22783 169.888272-169.921018 446.339558-169.921018 616.22783 0C990.035444 245.420805 990.035444 521.869021 820.113403 691.760362zM775.903505 119.742431c-145.526421-145.524374-382.315382-145.493675-527.808034 0-145.524374 145.524374-145.524374 382.281613 0 527.805988 145.492652 145.492652 382.281613 145.525398 527.808034 0C921.397181 502.054743 921.397181 265.235083 775.903505 119.742431zM768.413927 540.010193c-11.630898 10.934027-31.792077 10.301623-42.757826-1.359974L455.180923 250.697995l-144.45195 142.30096c-11.500938 11.345396-31.44313 11.250228-42.819225-0.252757-5.687536-5.782703-8.753361-13.399171-8.721639-21.519106 0.063445-8.058536 3.317559-15.642259 9.069563-21.268396l166.034501-163.601078 0.980327-0.946558c0.124843-0.12689 0.252757-0.252757 0.3776-0.346901l0-0.063445c1.928932-1.706875 3.949962-2.750647 5.815449-3.729951l3.476171-2.02103c3.603061-1.390673 7.300266-2.085498 11.06194-2.085498 4.108574 0 8.025791 0.788969 11.722996 2.368954 1.612731 0.663102 2.717901 1.549286 4.296863 2.592035 1.423419 0.821715 3.350304 1.959631 5.183046 3.664459l292.50389 311.400263c5.560646 5.846148 8.467859 13.527085 8.247848 21.585621C777.736247 526.894478 774.324544 534.415778 768.413927 540.010193z"  horiz-adv-x="1024" />

    
    <glyph glyph-name="31gouwuchexuanzhong" unicode="&#983505;" d="M914.563542 688.730353c-15.143908 17.145495-36.001959 26.574239-58.688657 26.574239L247.978814 715.304591l-2.332115 13.46057c-5.294586 43.370787-43.400462 77.285201-86.785575 77.285201l-38.540781 0c-15.869433 0-28.77844-12.910031-28.77844-28.77844s12.910031-28.77844 28.77844-28.77844l38.540781 0c14.302751 0 27.965935-12.851703 29.851888-28.053939l29.184693-168.726819 51.305503-361.272114c5.250584-43.313481 42.921555-77.226872 85.784782-77.226872l491.37117 0c15.869433 0 28.77844 12.910031 28.77844 28.77844 0 15.839757-12.910031 28.749788-28.77844 28.749788l-491.37117 0c-13.794168 0-26.936489 12.44545-28.705785 27.183106l-4.253884 29.958312 481.047034 36.592406c42.935881 0 80.534198 33.217543 85.697801 75.601862l47.694255 272.730545C939.919023 641.413698 931.941328 669.11869 914.563542 688.730353zM362.821399 79.995171c-32.536021 0-59.022255-26.487258-59.022255-59.037605 0-32.521694 26.487258-59.007929 59.022255-59.007929 32.536021 0 59.022255 26.487258 59.022255 59.007929C421.843654 53.508937 395.356396 79.995171 362.821399 79.995171zM786.364765 79.995171c-32.550347 0-59.036581-26.487258-59.036581-59.037605 0-32.521694 26.487258-59.007929 59.036581-59.007929 32.521694 0 59.007929 26.487258 59.007929 59.007929C845.372693 53.508937 818.886459 79.995171 786.364765 79.995171z"  horiz-adv-x="1024" />

    
    <glyph glyph-name="31gouwuche" unicode="&#983506;" d="M846.35916 170.740942l-491.37117 0c-13.794168 0-26.936489 12.44545-28.705785 27.183106l-51.509141 362.723162-29.127388 168.117952c-5.294586 43.370787-43.400462 77.285201-86.785575 77.285201l-38.540781 0c-15.869433 0-28.77844-12.910031-28.77844-28.77844s12.910031-28.77844 28.77844-28.77844l38.540781 0c14.302751 0 27.966958-12.851703 29.851888-28.053939l29.184693-168.726819 51.305503-361.272114c5.250584-43.313481 42.921555-77.226872 85.784782-77.226872l491.37117 0c15.869433 0 28.77844 12.910031 28.77844 28.77844C875.138624 157.831934 862.228593 170.740942 846.35916 170.740942zM914.563542 688.730353c-15.143908 17.145495-36.001959 26.574239-58.688657 26.574239L332.084351 715.304591c-15.869433 0-28.77844-12.910031-28.77844-28.77844s12.910031-28.77844 28.77844-28.77844l523.790534 0c6.179746 0 11.43033-2.407839 15.607466-7.136537 6.208399-7.020904 9.370415-18.538215 8.064676-29.358655l-47.664579-272.730545c-1.769296-14.534018-15.637142-26.51591-30.896684-26.602891l-410.28541-30.258141c-7.658424-0.551562-14.620999-4.03285-19.640316-9.863648-5.033643-5.802146-7.484462-13.229303-6.919597-20.887726 1.087774-14.969946 13.678534-26.689872 28.662807-26.689872 0.681522 0 1.407046 0.028653 2.118244 0.086981l408.153864 30.17116c42.935881 0 80.534198 33.217543 85.697801 75.601862l47.694255 272.730545C939.919023 641.413698 931.941328 669.11869 914.563542 688.730353zM362.821399-38.049339c32.536021 0 59.022255 26.487258 59.022255 59.007929 0 32.550347-26.487258 59.037605-59.022255 59.037605s-59.022255-26.487258-59.022255-59.037605C303.798121-11.563104 330.285379-38.049339 362.821399-38.049339zM786.364765-38.049339c32.521694 0 59.007929 26.487258 59.007929 59.007929 0 32.550347-26.487258 59.037605-59.007929 59.037605-32.550347 0-59.036581-26.487258-59.036581-59.037605C727.328183-11.563104 753.814418-38.049339 786.364765-38.049339z"  horiz-adv-x="1024" />

    
    <glyph glyph-name="31wode" unicode="&#983512;" d="M899.640668-1.714805c-7.238868 108.132766-60.680011 208.738092-146.610102 276.03173l-5.16565 3.568269-0.047072-0.069585c-4.88731 2.988054-10.458189 4.586458-16.192797 4.586458-19.701714 0-31.458479-9.498328-31.458479-25.411763 0-9.266038 4.285606-17.975397 11.477402-23.882943l-0.080841-0.13917 4.562922-3.266393c72.065316-51.518351 112.638383-129.652895 120.584356-232.273111l0.084934-1.119497c-0.071631-0.862647-0.116657-1.731434-0.116657-2.612501 0-17.340947 14.058181-31.400151 31.400151-31.400151 16.759709 0 30.449499 13.131065 31.350009 29.665647l0.624217 0L899.640668-1.714805zM798.515502 524.204206c0 156.107407-128.529305 283.119149-286.524712 283.119149s-286.525736-127.011742-286.525736-283.119149c0-84.110653 37.19104-162.570609 102.377692-216.660528-117.01711-62.452377-194.688097-181.588755-203.479321-313.118394l-0.36225-5.482875c-0.007163-0.113587-0.016373-0.226151-0.022513-0.340761l-0.032746-0.499373 0.019443 0c-0.008186-0.267083-0.019443-0.533143-0.019443-0.802272 0-14.702863 11.918447-26.622334 26.622334-26.622334 14.702863 0 26.622334 11.918447 26.622334 26.622334 0 0.26913-0.01228 0.535189-0.019443 0.802272l0.553609 0 0.417509 5.467525c9.647731 124.997875 88.871073 234.450706 202.112184 279.552927 33.809013-15.705704 85.420485-32.060183 131.714857-32.060183 42.889833 0 84.540442 9.451256 124.198673 28.307719l29.048593 16.863063 23.720238 15.566534C758.567675 356.003366 798.515502 437.080939 798.515502 524.204206zM511.989767 298.068885c-126.247332 0-228.949412 101.461833-228.949412 226.157833 0 124.673487 102.701057 226.111784 228.949412 226.111784 126.259612 0 228.972948-101.438297 228.972948-226.111784C740.961692 399.530718 638.249379 298.068885 511.989767 298.068885z"  horiz-adv-x="1024" />

    
    <glyph glyph-name="31saoma" unicode="&#983546;" d="M903.825478 362.400053l-783.637654 0c-16.641005 0-30.147624 13.494339-30.147624 30.133298 0 16.625656 13.507642 30.148647 30.147624 30.148647l783.637654 0c16.670681 0 30.133298-13.522991 30.133298-30.148647C933.958776 375.894392 920.49616 362.400053 903.825478 362.400053M813.426609 0.715547 647.261125 0.715547c-16.670681 0-30.163997 13.462616-30.163997 30.132274 0 16.670681 13.493316 30.163997 30.163997 30.163997l166.166507 0c16.641005 0 30.102598 13.492292 30.102598 30.132274L843.530231 241.83821c0 16.671705 13.492292 30.133298 30.162974 30.133298 16.672728 0 30.133298-13.461593 30.133298-30.133298l0-150.694117C903.825478 41.282474 863.258551 0.715547 813.426609 0.715547M382.300544 0.715547 210.602044 0.715547c-49.861618 0-90.413196 40.566928-90.413196 90.428545L120.188848 241.83821c0 16.671705 13.507642 30.133298 30.147624 30.133298 16.641005 0 30.117948-13.461593 30.117948-30.133298l0-150.694117c0-16.641005 13.537318-30.132274 30.147624-30.132274L382.300544 61.011818c16.670681 0 30.163997-13.493316 30.163997-30.163997C412.463518 14.178163 398.970202 0.715547 382.300544 0.715547M150.336472 513.096217c-16.639982 0-30.147624 13.507642-30.147624 30.148647L120.188848 693.938981c0 49.861618 40.552601 90.413196 90.413196 90.413196L382.300544 784.352177c16.670681 0 30.163997-13.506619 30.163997-30.147624 0-16.610306-13.493316-30.117948-30.163997-30.117948L210.602044 724.086605c-16.610306 0-30.147624-13.537318-30.147624-30.147624l0-150.694117C180.45442 526.603859 166.976454 513.096217 150.336472 513.096217M873.692181 513.096217c-16.670681 0-30.162974 13.507642-30.162974 30.148647L843.529207 693.938981c0 16.610306-13.461593 30.147624-30.102598 30.147624L647.261125 724.086605c-16.670681 0-30.163997 13.507642-30.163997 30.117948 0 16.641005 13.493316 30.147624 30.163997 30.147624l166.166507 0c49.830919 0 90.39887-40.552601 90.39887-90.413196l0-150.694117C903.825478 526.603859 890.364909 513.096217 873.692181 513.096217"  horiz-adv-x="1024" />

    
    <glyph glyph-name="31goumaichongzhi" unicode="&#983558;" d="M762.618433 276.752394 545.093211 276.752394 545.093211 394.538007l227.045039 1.762133c13.104459 4.247744 21.900799 16.343223 21.900799 30.095435 0 17.33583-14.098089 31.43392-31.420617 31.43392L545.093211 457.829496l0 71.078849 220.238007 218.113623c1.205455 2.591011 2.709715 7.410783 3.012613 12.592806 0.571005 8.449439-2.260483 16.598027-7.894807 23.01518-10.091846 11.372002-33.165354 12.577456-44.974307 2.00261L514.364349 586.309682 301.50745 795.264715c-9.639544 8.391111-34.341133 7.381108-43.679825-3.237741-9.188266-10.363022-10.483772-25.816992-3.193739-37.625946l3.222391-5.180999 223.915769-218.581274 0-72.810283-227.077785-1.626034c-13.07376-4.233418-21.930475-16.297175-21.930475-30.019711 0-13.721513 8.856715-25.755594 21.930475-29.987988l5.211698-1.657756 221.866087 0 0-117.785613-227.13816-1.654686c-13.07376-4.158716-21.8701-16.240893-21.8701-29.946033 0-13.735839 8.79634-25.816992 21.930475-30.093389l5.061272-1.627057 222.016513 0 0.11768-221.412762 1.569752-3.012613c4.214998-13.043061 16.264429-21.869077 29.971615-21.869077s25.75764 8.826016 30.004361 21.900799l1.657756 5.149277L545.093211 213.43123l227.045039 1.746784c13.104459 4.279467 21.900799 16.35755 21.900799 30.094412C794.03905 262.594953 779.94096 276.752394 762.618433 276.752394z"  horiz-adv-x="1024" />

    
    <glyph glyph-name="31mima" unicode="&#983574;" d="M511.970836 396.728906c-67.470671 0-124.724653-53.072753-130.051985-119.469975-0.358157-1.096984-0.775666-2.648316-0.775666-4.466732l0-31.441083c0-7.708566 6.224772-13.96199 13.876032-13.96199l31.203676 0c7.65126 0 13.931291 6.252401 13.931291 13.96199l-0.116657 9.052167c-0.535189 2.594081-0.35918 5.598508-0.11768 8.724709 0.11768 1.935072 0.234337 3.840468 0.234337 5.808286 0 39.924291 32.185027 72.467475 71.816652 72.467475 39.627533 0 71.870888-32.544207 71.870888-72.467475 0-31.771611-20.661575-59.697637-50.166563-69.136613l0 45.552475c0 7.68503-6.251378 13.96506-13.902638 13.96506l-31.174 0c-7.65433 0-13.906731-6.281053-13.906731-13.96506l0-94.259804c0-7.68503 6.252401-13.96506 13.906731-13.96506l31.174 0c1.279133 0 2.52859 0.208754 3.839445 0.596588 66.899666 5.985318 119.213126 63.475683 119.241778 131.214461C642.853745 337.61353 584.141552 396.728906 511.970836 396.728906M806.553061 559.962617l-76.131935 0.090051 0 55.245232c0 104.908328-83.48439 190.268438-186.147584 190.268438L508.27977 805.566338c-101.113909 0-184.302563-83.84357-185.969529-187.18624l-0.177032-1.533936c0-1.057075 0.118704-1.696642 0-1.548262l0.357134-6.104021 0.952698 0c3.393283-12.400425 14.736633-21.497617 27.868721-21.497617 13.219069 0 24.473391 9.097192 27.836999 21.497617l0.983397 0 0.23843 5.819542c3.333932 74.213235 59.962673 132.331911 128.97956 132.331911l33.853016 0c71.311139 0 129.308041-62.390979 129.308041-139.030473l0-48.352241L375.188566 559.962617l0.089028 0.090051-157.800979-0.090051c-48.680722 0-88.307232-40.46255-88.307232-90.124624l0-417.338037c0-49.665143 39.627533-90.066295 88.307232-90.066295L806.553061-37.566338c48.708352 0 88.277556 40.400129 88.277556 90.066295L894.830617 469.837994C894.829594 519.500067 855.260389 559.962617 806.553061 559.962617M839.364351 465.415264l0-408.480298c0-21.019733-16.645099-38.081317-37.128619-38.081317L221.764268 18.853649c-20.484543 0-37.157271 17.061584-37.157271 38.081317L184.606996 465.415264c0 20.976754 16.672728 38.081317 37.157271 38.081317l580.471464 0C822.719252 503.496581 839.364351 486.390995 839.364351 465.415264"  horiz-adv-x="1024" />

    
    <glyph glyph-name="shanchujinzhi" unicode="&#59075;" d="M513.554914 751.77536c-248.291946 0-449.583438-201.303772-449.583438-449.625394 0-248.299109 201.292516-449.595718 449.583438-449.595718 248.281713 0 449.63665 201.296609 449.63665 449.595718C963.192587 550.471588 761.836627 751.77536 513.554914 751.77536zM513.675664-105.673369c-225.166249 0-407.700539 182.538383-407.700539 407.703609 0 225.173412 182.533266 407.710772 407.700539 407.710772 225.169319 0 407.703609-182.53736 407.703609-407.710772C921.379273 76.865014 738.844983-105.673369 513.675664-105.673369zM735.450676 343.297109c22.720468 0 41.139979-18.416442 41.139979-41.132816l0 0c0-22.724561-18.419512-41.139979-41.139979-41.139979L291.70827 261.024314c-22.716374 0-41.135886 18.415418-41.135886 41.139979l0 0c0 22.716374 18.419512 41.132816 41.135886 41.132816L735.450676 343.297109z"  horiz-adv-x="1024" />

    
    <glyph glyph-name="tubiao211" unicode="&#58908;" d="M639.587844 324.024217c50.645853 59.52346 104.044532 139.931555 104.044532 226.090907 0 155.69225-103.608583 282.240365-231.039853 282.240365-127.308468 0-231.166749-126.548115-231.166749-282.240365 0-86.159352 32.64094-143.930828 97.855279-224.590668 107.547477-158.751059-244.1081-170.379445-297.256057-283.614731-15.755578-33.636665-18.509427-59.712781-18.261775-89.784076 0-3.878517-0.370455-7.877789 1.566757-11.065541 1.937212-3.130444 4.938713-5.066632 8.192982-5.066632l876.887561 0c3.127374 0 6.190276 1.937212 8.065063 5.066632 1.937212 3.187752 1.563687 7.125623 1.563687 11.065541 0.62834 33.637688-3.87647 63.776525-12.693699 82.22148C890.886038 152.704308 484.891318 143.827725 639.587844 324.024217z"  horiz-adv-x="1025" />

    
    <glyph glyph-name="ok" unicode="&#58917;" d="M858.215186 530.703223c-19.841907 45.544289-46.667879 85.226057-80.476893 119.03507-33.813107 33.813107-73.629951 60.639079-119.455649 80.476893-45.828768 19.838837-94.727455 29.759791-146.704247 29.759791-51.972699 0-100.732216-9.920954-146.280598-29.759791-45.545312-19.837814-85.226057-46.663786-119.03507-80.476893-33.813107-33.809013-60.639079-73.490781-80.477916-119.03507-19.838837-45.549406-29.759791-94.308923-29.759791-146.281621 0-51.976792 9.920954-100.875478 29.759791-146.704247 19.838837-45.824675 46.664809-85.641519 80.477916-119.454626 33.809013-33.809013 73.489758-60.634985 119.03507-80.477916 45.548382-19.838837 94.307899-29.759791 146.280598-29.759791 51.976792 0 100.875478 9.920954 146.704247 29.759791 45.825698 19.84293 85.642542 46.668902 119.455649 80.477916 33.809013 33.813107 60.634985 73.629951 80.476893 119.454626 19.838837 45.828768 29.759791 94.727455 29.759791 146.704247C887.974977 436.394301 878.054023 485.153818 858.215186 530.703223zM687.075411 471.603197 477.3222 259.56699c-0.052189-0.052189-0.159636-0.079818-0.211824-0.156566-0.075725-0.051165-0.075725-0.159636-0.156566-0.211824-1.678222-1.622964-3.745301-2.617617-5.683443-3.717671-0.971118-0.551562-1.75497-1.390673-2.778276-1.782599-3.14155-1.254573-6.471388-1.910513-9.797134-1.910513-3.354398 0-6.731308 0.655939-9.901511 1.962701-1.047866 0.448208-1.886977 1.335415-2.882654 1.886977-1.938142 1.099031-3.957125 2.070148-5.631254 3.721765-0.052189 0.051165-0.080841 0.155543-0.132006 0.207731-0.052189 0.079818-0.156566 0.079818-0.207731 0.155543L336.777233 365.742171c-10.088776 10.373255-9.853415 26.953885 0.523933 37.043684 10.372232 10.057053 26.929326 9.872858 37.038568-0.523933l84.538395-86.869486 190.974519 193.041598c10.161431 10.296507 26.770713 10.376325 37.039591 0.211824C697.136557 498.452705 697.240935 481.872075 687.075411 471.603197z"  horiz-adv-x="1024" />

    
    <glyph glyph-name="okcircled" unicode="&#59191;" d="M806.810112 476.532736q0 15.998976-10.285056 26.284032l-51.996672 51.42528q-10.856448 10.856448-25.71264 10.856448t-25.71264-10.856448l-233.127936-232.556544-129.134592 129.134592q-10.856448 10.856448-25.71264 10.856448t-25.71264-10.856448l-51.996672-51.42528q-10.285056-10.285056-10.285056-26.284032 0-15.427584 10.285056-25.71264l206.843904-206.843904q10.856448-10.856448 25.71264-10.856448 15.427584 0 26.284032 10.856448l310.265856 310.265856q10.285056 10.285056 10.285056 25.71264zm143.990784-92.565504q0-119.420928-58.853376-220.271616t-159.704064-159.704064-220.271616-58.853376-220.271616 58.853376-159.704064 159.704064-58.853376 220.271616 58.853376 220.271616 159.704064 159.704064 220.271616 58.853376 220.271616-58.853376 159.704064-159.704064 58.853376-220.271616z"  horiz-adv-x="1024" />

    
    <glyph glyph-name="oksquared" unicode="&#59193;" d="M464.546304 153.696256l350.834688 350.834688q10.856448 10.856448 10.856448 25.71264t-10.856448 25.71264l-58.281984 58.281984q-10.856448 10.856448-25.71264 10.856448t-25.71264-10.856448l-266.840064-266.840064-120.563712 120.563712q-10.856448 10.856448-25.71264 10.856448t-25.71264-10.856448l-58.281984-58.281984q-10.856448-10.856448-10.856448-25.71264t10.856448-25.71264l204.558336-204.558336q10.856448-10.856448 25.71264-10.856448t25.71264 10.856448zm486.254592 504.539136l0-548.53632q0-67.995648-48.282624-116.278272t-116.278272-48.282624l-548.53632 0q-67.995648 0-116.278272 48.282624t-48.282624 116.278272l0 548.53632q0 67.995648 48.282624 116.278272t116.278272 48.282624l548.53632 0q67.995648 0 116.278272-48.282624t48.282624-116.278272z"  horiz-adv-x="1024" />

    
    <glyph glyph-name="htmal5icon45" unicode="&#58925;" d="M482.697627 646.668375 562.766221 726.736968 905.917628 383.586584 562.766221 40.435177 482.697627 120.50377 745.780441 383.586584ZM118.083395 646.668375 198.151989 726.736968 541.302373 383.586584 198.151989 40.435177 118.083395 120.50377 381.166209 383.586584Z"  horiz-adv-x="1024" />

    
    <glyph glyph-name="vertical_line" unicode="&#58938;" d="M531.185-47.532c0-8.9-6.494-16.114-14.503-16.114h-9.364c-8.010 0-14.504 7.214-14.504 16.114v863.066c0 8.899 6.494 16.114 14.504 16.114h9.364c8.009 0 14.503-7.215 14.503-16.114v-863.066z"  horiz-adv-x="1024" />

    
    <glyph glyph-name="jinzhi1" unicode="&#58987;" d="M510.983345 832.400496c246.331291 0 447.87554-201.544249 447.87554-447.87554 0-246.332315-201.544249-447.87554-447.87554-447.87554S63.108828 138.193665 63.108828 384.525979C63.108828 630.856247 264.652054 832.400496 510.983345 832.400496L510.983345 832.400496zM318.935378 448.482617l0-127.913275 383.739824 0 0 127.913275L318.935378 448.482617z"  horiz-adv-x="1024" />

    
    <glyph glyph-name="erweima1" unicode="&#59008;" d="M544 0l64 0 0-64-64 0 0 64ZM416 480 416 832 64 832l0-352 64 0 0-64 64 0 0 64L416 480zM128 544 128 768l224 0 0-224L128 544zM192 704l96 0 0-96-96 0 0 96ZM608 832l0-352 352 0L960 832 608 832zM896 544l-224 0L672 768l224 0L896 544zM736 704l96 0 0-96-96 0 0 96ZM192 160l96 0 0-96-96 0 0 96ZM64 416l64 0 0-64-64 0 0 64ZM192 416l64 0 0-64-64 0 0 64ZM256 288 64 288l0-352 352 0L416 288l-96 0 0 64L256 352 256 288zM352 224l0-224L128 0l0 224L352 224zM480 800l64 0 0-96-64 0 0 96ZM480 640l64 0 0-64-64 0 0 64ZM672 416 608 416 544 416 544 512 480 512 480 416 320 416 320 352 480 352 544 352 608 352 608 288 672 288 672 352ZM672 288l64 0 0-64-64 0 0 64ZM480 288l64 0 0-96-64 0 0 96ZM480 128l64 0 0-128-64 0 0 128ZM608 192l64 0 0-192-64 0 0 192ZM800 288l160 0 0-64-160 0 0 64ZM896 416l64 0 0-64-64 0 0 64ZM736 416l128 0 0-64-128 0 0 64ZM736 192l64 0 0-64-64 0 0 64ZM896 128 864 128 864 64 928 64 928 128 960 128 960 192 896 192ZM736 64l64 0 0-64-64 0 0 64ZM800 0l160 0 0-64-160 0 0 64Z"  horiz-adv-x="1024" />

    
    <glyph glyph-name="youjiantou" unicode="&#58900;" d="M558.941102-60.144566 203.163119 383.867994 558.813189 834.463482 602.991364 799.594323 275.072893 384.132006 602.863451-24.951019ZM754.392586-60.144566 398.614603 383.867994 754.264673 834.463482 798.442848 799.594323 470.524376 384.132006 798.314934-24.951019Z"  horiz-adv-x="1024" />

    
    <glyph glyph-name="qian" unicode="&#58978;" d="M694.26516 609.01173 512 426.745547 329.732793 609.01173c-8.287757 8.287757-21.724791 8.286734-30.012547-0.001023-8.286734-8.286734-8.286734-21.723767 0-30.011524l161.04486-161.043836-108.634186 0c-11.720949 0-21.221324-9.502421-21.221324-21.221324s9.501398-21.221324 21.221324-21.221324l139.000797 0 0-89.12997L363.803773 286.382729c-11.720949 0-21.221324-9.502421-21.221324-21.221324s9.501398-21.221324 21.221324-21.221324l127.328967 0 0-131.572618c0-11.718903 9.502421-21.221324 21.221324-21.221324s21.221324 9.502421 21.221324 21.221324L533.575388 243.940081l127.327944 0c11.719926 0 21.221324 9.502421 21.221324 21.221324S672.623257 286.382729 660.903332 286.382729L533.575388 286.382729l0 89.12997 138.999774 0c11.719926 0 21.221324 9.502421 21.221324 21.221324s-9.502421 21.221324-21.221324 21.221324L563.233871 417.955346l161.043836 161.043836c8.287757 8.287757 8.287757 21.724791 0 30.012547C715.987904 617.299487 702.554964 617.299487 694.26516 609.01173zM512 830.709995c-246.316965 0-446.709995-200.39303-446.709995-446.708971 0-246.316965 200.39303-446.709995 446.709995-446.709995s446.709995 200.39303 446.709995 446.709995C958.709995 630.316965 758.316965 830.709995 512 830.709995zM512-20.266323c-222.913952 0-404.267347 181.353394-404.267347 404.267347S289.086048 788.266323 512 788.266323s404.267347-181.352371 404.267347-404.266323S734.912929-20.266323 512-20.266323z"  horiz-adv-x="1024" />

    
    <glyph glyph-name="jinzhide" unicode="&#59069;" d="M504.109851 879.546872c-278.332339 0-503.966321-225.632974-503.966321-503.966321S225.776505-128.384762 504.109851-128.384762s503.966321 225.632974 503.966321 503.966321S782.44219 879.546872 504.109851 879.546872zM242.706054 329.344591l0.04734 94.679771 525.432441 0-0.017123-94.679771L242.706054 329.344591z"  horiz-adv-x="1024" />

    
    <glyph glyph-name="qian1" unicode="&#58929;" d="M694.26516 609.01173 512 426.745547 329.732793 609.01173c-8.287757 8.287757-21.724791 8.286734-30.012547-0.001023-8.286734-8.286734-8.286734-21.723767 0-30.011524l161.04486-161.043836-108.634186 0c-11.720949 0-21.221324-9.502421-21.221324-21.221324s9.501398-21.221324 21.221324-21.221324l139.000797 0 0-89.12997L363.803773 286.382729c-11.720949 0-21.221324-9.502421-21.221324-21.221324s9.501398-21.221324 21.221324-21.221324l127.328967 0 0-131.572618c0-11.718903 9.502421-21.221324 21.221324-21.221324s21.221324 9.502421 21.221324 21.221324L533.575388 243.940081l127.327944 0c11.719926 0 21.221324 9.502421 21.221324 21.221324S672.623257 286.382729 660.903332 286.382729L533.575388 286.382729l0 89.12997 138.999774 0c11.719926 0 21.221324 9.502421 21.221324 21.221324s-9.502421 21.221324-21.221324 21.221324L563.233871 417.955346l161.043836 161.043836c8.287757 8.287757 8.287757 21.724791 0 30.012547C715.987904 617.299487 702.554964 617.299487 694.26516 609.01173zM512 830.709995c-246.316965 0-446.709995-200.39303-446.709995-446.708971 0-246.316965 200.39303-446.709995 446.709995-446.709995s446.709995 200.39303 446.709995 446.709995C958.709995 630.316965 758.316965 830.709995 512 830.709995zM512-20.266323c-222.913952 0-404.267347 181.353394-404.267347 404.267347S289.086048 788.266323 512 788.266323s404.267347-181.352371 404.267347-404.266323S734.912929-20.266323 512-20.266323z"  horiz-adv-x="1024" />

    
    <glyph glyph-name="mima" unicode="&#58914;" d="M768.9216 473.27232 372.06016 473.27232C378.88 530.78016 329.37984 764.57984 512.2048 770.27328c173.83424 6.59456 146.78016-213.34016 146.78016-213.34016l85.13536-0.57344c0 0 24.73984 294.4-231.91552 295.8336C232.09984 837.98016 297.82016 518.81984 289.28 473.27232c1.98656 0 4.56704 0 7.29088 0-55.88992 0-101.21216-45.34272-101.21216-101.21216l0-337.38752c0-55.88992 45.34272-101.21216 101.21216-101.21216l472.35072 0c55.88992 0 101.21216 45.34272 101.21216 101.21216L870.13376 372.06016C870.13376 427.9296 824.79104 473.27232 768.9216 473.27232zM566.4768 178.97472l0-76.84096c0-18.57536-15.1552-33.73056-33.73056-33.73056-18.57536 0-33.73056 15.1552-33.73056 33.73056l0 76.84096c-20.09088 11.69408-33.73056 33.21856-33.73056 58.12224 0 37.2736 30.208 67.4816 67.4816 67.4816 37.2736 0 67.4816-30.208 67.4816-67.4816C600.22784 212.19328 586.58816 190.6688 566.4768 178.97472z"  horiz-adv-x="1024" />

    
    <glyph glyph-name="ai-password" unicode="&#58942;" d="M320 576c0 106.048 85.952 192 192 192s192-85.952 192-192c0-22.592-4.608-43.904-11.776-64h139.776v64c0 176.704-143.296 320-320 320-176.768 0-320-143.232-320-320v-64c0 0 58.176 0 139.776 0-7.168 20.16-11.776 41.472-11.776 64zM832 512h-640c-70.72 0-128-57.344-128-128v-384c0-70.72 57.28-128 128-128h640c70.72 0 128 57.344 128 128v384c0 70.656-57.28 128-128 128zM576 145.792v-81.792c0-35.328-28.672-64-64-64s-64 28.672-64 64v81.728c-38.080 22.208-64 63.040-64 110.272 0 70.72 57.28 128 128 128s128-57.28 128-128c0-47.232-25.92-88.064-64-110.208z"  horiz-adv-x="1024" />

    
    <glyph glyph-name="mima1" unicode="&#58919;" d="M855.154501 440.609069l-564.667519 0.945338c-0.228532 75.293768-20.697758 191.982043 44.295959 262.809872 39.537056 43.154306 106.159692 87.581142 177.249275 87.581142 105.020052 0 183.539445-78.290861 221.545235-175.1945 11.082296-27.934271 20.828634-42.992219 44.329182-43.807686 58.89785-1.759798 55.312816 59.681101 44.295959 87.614365C767.280394 800.453458 664.248672 879.559785 512.032216 879.559785c-103.455564 0-160.462739-20.990721-221.545235-87.614365-93.4817-101.792414-88.852666-266.361683-88.624134-350.391014l-32.952916-0.945338c-30.801493 0-55.671219-24.347224-55.671219-54.302039l0-459.779351c0-30.116903 24.935165-54.400701 55.671219-54.400701l686.180136 0c30.76827 0 55.671219 24.316014 55.671219 54.400701L910.761287 386.30703C910.826726 416.294061 885.891561 440.609069 855.154501 440.609069L855.154501 440.609069 855.154501 440.609069 855.154501 440.609069zM823.570764 3.907431c0-12.125287-4.301839-22.521987-13.038409-31.030024-8.637908-8.571463-19.100046-12.874309-31.356211-12.874309L246.419555-39.996903c-12.256165 0-22.718303 4.237407-31.322989 12.874309-8.670124 8.572469-13.070625 18.904737-13.070625 31.030024L202.025941 311.0787c0 24.151914 19.883298 43.806679 44.393614 43.806679l532.757595 0c24.479107 0 44.393614-19.654765 44.393614-43.806679L823.570764 3.907431 823.570764 3.907431 823.570764 3.907431 823.570764 3.907431z"  horiz-adv-x="1024" />

    
    <glyph glyph-name="mima2" unicode="&#58906;" d="M774.016 496.9344l-81.312 0 0 63.2512C692.704 691.0784 632.4096 768 512 768S331.296 691.0784 331.296 560.1856l0-63.2512L240.9408 496.9344c-24.96 0-45.1776-29.2544-45.1776-54.208l0-352.3776c0-24.8512 19.3536-51.4304 43.0016-59.0528l54.0544-17.44c23.648-7.6288 63.3216-13.8688 88.16-13.8688l262.0224 0c24.8448 0 64.5312 6.24 88.1856 13.8688l54.048 17.44c23.6416 7.616 42.9824 34.2016 42.9824 59.0528L828.2176 442.7328C828.2304 467.68 798.976 496.9344 774.016 496.9344zM421.6448 578.2592c0 65.28 36.0192 99.392 90.3552 99.392 54.3296 0 90.3488-34.112 90.3488-99.392l0-81.3248L421.6448 496.9344 421.6448 578.2592z"  horiz-adv-x="1024" />

    
    <glyph glyph-name="okh" unicode="&#58960;" d="M510.685563 441.592696c-31.727609 0-57.539484-25.815969-57.539484-57.553811 0-31.716352 25.811876-57.526181 57.539484-57.526181s57.539484 25.809829 57.539484 57.526181C568.225047 415.776727 542.413172 441.592696 510.685563 441.592696zM510.685563 831.365934c-247.048629 0-447.312722-200.264093-447.312722-447.312722 0-247.047606 200.264093-447.312722 447.312722-447.312722 247.044536 0 447.312722 200.265116 447.312722 447.312722C957.998285 631.102864 757.730099 831.365934 510.685563 831.365934zM510.685563 299.41044c-46.675042 0-84.641749 37.968753-84.641749 84.628446 0 46.675042 37.966707 84.657098 84.641749 84.657098 46.674019 0 84.642772-37.982056 84.642772-84.657098C595.328335 337.37817 557.359582 299.41044 510.685563 299.41044z"  horiz-adv-x="1024" />

    
    <glyph glyph-name="qian2" unicode="&#58949;" d="M228.677632 759.077888 250.308608 772.740096 504.19712 405.001216 520.136704 405.001216 774.024192 772.740096 795.656192 758.508544 551.44448 405.001216 823.703552 405.001216 823.703552 378.815488 533.228544 378.815488 526.190592 367.427584 526.190592 238.780416 823.703552 238.780416 823.703552 213.732352 526.190592 213.732352 526.190592-5.434368 499.073024-5.434368 499.073024 212.589568 200.948736 212.589568 200.948736 239.915008 499.073024 239.915008 499.073024 366.288896 490.677248 379.385856 200.948736 379.385856 200.948736 405.00224 472.887296 405.00224Z"  horiz-adv-x="1024" />

    
    <glyph glyph-name="mima3" unicode="&#58956;" d="M768.9216 473.27232 372.06016 473.27232C378.88 530.78016 329.37984 764.57984 512.2048 770.27328c173.83424 6.59456 146.78016-213.34016 146.78016-213.34016l85.13536-0.57344c0 0 24.73984 294.4-231.91552 295.8336C232.09984 837.98016 297.82016 518.81984 289.28 473.27232c1.98656 0 4.56704 0 7.29088 0-55.88992 0-101.21216-45.34272-101.21216-101.21216l0-337.38752c0-55.88992 45.34272-101.21216 101.21216-101.21216l472.35072 0c55.88992 0 101.21216 45.34272 101.21216 101.21216L870.13376 372.06016C870.13376 427.9296 824.79104 473.27232 768.9216 473.27232zM566.4768 178.97472l0-76.84096c0-18.57536-15.1552-33.73056-33.73056-33.73056-18.57536 0-33.73056 15.1552-33.73056 33.73056l0 76.84096c-20.09088 11.69408-33.73056 33.21856-33.73056 58.12224 0 37.2736 30.208 67.4816 67.4816 67.4816 37.2736 0 67.4816-30.208 67.4816-67.4816C600.22784 212.19328 586.58816 190.6688 566.4768 178.97472z"  horiz-adv-x="1024" />

    
    <glyph glyph-name="ai55" unicode="&#59053;" d="M511.175727 733.644285c-192.325283 0-349.669868-157.343561-349.669868-349.669868 0-192.276165 157.344584-349.619726 349.669868-349.619726s349.669868 157.343561 349.669868 349.619726C860.845595 576.300724 703.502034 733.644285 511.175727 733.644285M231.470327 383.975441c0 153.886833 125.890198 279.758612 279.7054 279.758612 62.945611 0 122.361839-20.974707 171.375136-59.46637l-391.670447-391.594723C252.46857 261.613602 231.470327 321.052343 231.470327 383.975441M511.175727 104.270041c-62.952774 0-122.360815 20.973684-171.329087 59.438741l391.617236 391.617236c38.465057-48.940642 59.416228-108.407012 59.416228-171.3516C790.881127 230.137727 665.036977 104.270041 511.175727 104.270041"  horiz-adv-x="1024" />

    
    <glyph glyph-name="iconforbidden" unicode="&#58886;" d="M509.270842 833.402313c-248.668523 0-450.254727-199.753463-450.254727-446.161503s201.586205-446.161503 450.254727-446.161503 450.254727 199.753463 450.254727 446.161503S757.939365 833.402313 509.270842 833.402313zM509.270842 684.682153c55.664787 0 107.779725-15.033391 152.467507-41.199331l-411.0621-407.326009c-26.40437 44.281529-41.574884 95.922676-41.574884 151.083997C209.100342 551.510108 343.487052 684.682153 509.270842 684.682153zM509.270842 89.799468c-55.666834 0-107.781772 15.032368-152.469554 41.197284l411.0621 407.326009c26.406416-44.281529 41.576931-95.922676 41.576931-151.08195C809.440319 222.96435 675.046447 89.799468 509.270842 89.799468z"  horiz-adv-x="1024" />

    
    <glyph glyph-name="jiantouyou" unicode="&#58907;" d="M133.240607-60.410626l-69.099774 67.271126 390.564253 378.87912L64.140833 764.606461l69.099774 67.275219L592.907705 385.739621 133.240607-60.410626zM496.768087-60.410626l-69.099774 67.271126 390.564253 378.87912L427.668313 764.606461 496.768087 831.880657l459.664028-446.14206L496.768087-60.410626z"  horiz-adv-x="1024" />

    
    <glyph glyph-name="youjiantou1" unicode="&#58930;" d="M530.850448 322.836687c32.005172 31.883636 32.111192 87.434343-0.069818 119.489939C399.437114 573.154263 268.507336 704.396929 137.436629 835.493495c-12.621576 12.625455-27.585939 20.686869-45.26804 23.540364-3.529697 0.570182-7.085253 0.999434-10.630465 1.499798-1.025293 0-2.055758 0-3.081051 0-4.035232-0.575354-8.111838-0.943838-12.091475-1.757091-33.298101-6.818909-54.838303-26.616242-63.959919-59.278222-3.201293-11.479919-2.806949-24.85398-1.135192-35.701657 1.751919-11.344162 7.11499-21.818182 14.479515-30.904889 3.444364-4.252444 7.050343-8.418263 10.918788-12.291879 111.045818-111.127273 222.142061-222.222222 333.247354-333.293899 1.444202-1.444202 3.227152-2.554828 5.187232-4.080485-2.121697-2.222545-3.475394-3.696485-4.879515-5.100606C252.653437 270.549333 145.164468 162.887111 37.416912 55.493818c-15.829333-15.773737-33.541172-31.162182-36.146424-54.273293-1.233455-10.908444-1.859232-22.111677 0-32.929616 0.919273-5.363071 3.262061-10.423596 5.494949-15.358707 23.655434-52.318384 89.514667-64.241778 130.66602-23.186101C268.668953 60.684929 399.501761 192.012929 530.850448 322.836687L530.850448 322.836687zM78.451902 860.533657l-12.091475-1.757091C70.345235 859.589818 74.421841 859.958303 78.451902 860.533657L78.451902 860.533657zM551.467498 859.558788c-38.000485-2.858667-70.434909-37.034667-71.651556-75.106263-0.79903-24.979394 8.131232-45.650747 25.691798-63.197091 111.383273-111.252687 222.661818-222.615273 334.015354-333.893818 1.534707-1.534707 3.686141-2.448808 6.595232-4.327434-3.35903-2.667313-5.116121-3.803798-6.565495-5.253172-68.050747-68.000323-136.075636-136.035556-204.100525-204.065616C591.916791 130.185051 548.391619 86.639192 504.845761 43.119192c-19.449535-19.439192-28.328081-42.706747-24.045899-70.054788 4.829091-30.919111 22.440081-52.516202 51.712-63.010909 29.450343-10.550303 56.692364-4.803232 80.49002 15.848727 1.944566 1.682101 3.798626 3.470222 5.616485 5.288081 130.121697 130.111354 259.955071 260.509737 390.546101 390.141414 33.272242 33.035636 33.454545 88.934141 1.206303 121.050505C879.016912 573.195636 748.093599 704.442182 617.028064 835.543919c-12.626747 12.626747-27.611798 20.655838-45.288727 23.505455-3.534869 0.570182-7.090424 0.994263-10.635636 1.484283-1.030465 0-2.055758 0-3.086222-0.005172C555.835013 860.200081 553.659013 859.725576 551.467498 859.558788L551.467498 859.558788zM551.467498 859.558788"  horiz-adv-x="1035" />

    
    <glyph glyph-name="ok1" unicode="&#58940;" d="M512 816.582c-241.617 0-436.961-195.344-436.961-436.961s195.344-436.961 436.961-436.961c241.617 0 436.961 195.344 436.961 436.961 0 241.617-195.344 436.961-436.961 436.961zM733.049 436.176l-236.471-226.187c-10.287-10.287-20.561-10.287-30.843 0-10.287-5.139-25.698-5.139-30.843 0l-138.798 133.655c-10.287 10.287-10.287 25.698 0 35.989l35.989 35.989c10.287 10.287 25.698 10.287 35.989 0l107.961-102.805 200.484 190.204c10.287 10.287 25.698 10.287 35.989 0l35.989-30.843c-5.139-15.425-5.139-30.843-15.425-35.989z"  horiz-adv-x="1024" />

    
    <glyph glyph-name="okok2" unicode="&#58961;" d="M512 574.49984c105.22112 0 190.49984-85.29408 190.49984-190.49984 0-105.22112-85.27872-190.49984-190.49984-190.49984S321.50016 278.77888 321.50016 384C321.50016 489.20576 406.77888 574.49984 512 574.49984z"  horiz-adv-x="1024" />

    
    <glyph glyph-name="dunpai" unicode="&#58946;" d="M512-64.16002l-9.515724 3.685949C196.871833 57.650257 161.529907 212.051813 161.529907 317.910792L161.529907 722.230328l27.282367-0.935302c212.432227-7.233752 302.889425 88.641853 303.741839 89.577155l19.472494 21.286816 19.444864-21.286816c0.715291-0.77055 86.441744-89.961918 281.052071-89.961918 0 0 0 0 0.027629 0 7.398504 0 14.96176 0.110517 22.63451 0.384763l27.282367 0.935302L862.468047 317.910792c0-105.85898-35.340903-260.259512-340.953346-378.384863L512-64.16002zM214.281341 668.159852 214.281341 317.910792c0-56.930617 0.027629-207.234855 297.718659-325.4697C809.718659 110.675938 809.718659 260.980175 809.718659 317.910792l0 350.249059c-164.852582 0.632403-259.709997 59.296501-297.718659 89.604784C473.963709 727.483982 379.105271 668.847513 214.281341 668.159852z"  horiz-adv-x="1024" />

    
    <glyph glyph-name="ok2" unicode="&#58899;" d="M512 896C229.216 896 0 666.752 0 384c0-282.784 229.216-512 512-512 282.752 0 512 229.216 512 512 0 282.752-229.248 512-512 512z m292.608-357.024l-320-384c-12.128-14.56-30.08-23.008-49.024-23.072h-0.128a63.936 63.936 0 0 0-48.992 22.88l-167.52 199.488a64 64 0 1 0 97.952 82.368l118.336-140.96 271.04 325.248a64.032 64.032 0 0 0 98.336-81.952z"  horiz-adv-x="1024" />

    
    <glyph glyph-name="icon-test" unicode="&#58931;" d="M512 831.3C265.3 831.3 64.7 630.7 64.7 384c0-118.8 46.6-226.8 122.5-307 0.6-0.7 1-1.4 1.7-2 0.4-0.4 0.8-0.7 1.3-1 81.4-84.5 195.6-137.3 322-137.3 246.7 0 447.3 200.7 447.3 447.3S758.7 831.3 512 831.3z m0-55.9c94.3 0 180.9-33.5 248.5-89.2L209.8 135.5c-55.7 67.6-89.2 154.2-89.2 248.5 0 215.8 175.6 391.4 391.4 391.4z m0-782.8c-101.5 0-194 38.8-263.7 102.4L801 647.7C864.6 578 903.4 485.5 903.4 384c0-215.8-175.6-391.4-391.4-391.4z"  horiz-adv-x="1024" />

    
    <glyph glyph-name="yonghuming" unicode="&#58970;" d="M511.808 384c121.344 0 219.84 100.352 219.84 224.128S633.152 832.192 511.808 832.192c-121.408 0-219.84-100.288-219.84-224.064s98.368-224.128 219.84-224.128z m302.848-139.84c-50.24 58.496-67.2 78.656-159.168 84.032h-287.04c-92.032-5.504-108.928-25.536-159.04-84.032-53.376-60.352-95.872-137.024-75.776-231.872 22.4-62.144 82.688-76.416 139.904-76.416H750.592c57.152 0 117.568 14.4 139.968 76.416 19.904 94.848-22.528 171.456-75.904 231.872z"  horiz-adv-x="1024" />

    
    <glyph glyph-name="double-right" unicode="&#59235;" d="M576.2 384l-393.1-393.1-35.4 35.4 357.8 357.7-357.7 357.7 35.4 35.4 393-393.1zM483.1 777.1l-35.4-35.4 357.8-357.7-357.7-357.7 35.4-35.4 393 393.1-393.1 393.1z"  horiz-adv-x="1024" />

    
    <glyph glyph-name="icon-" unicode="&#58888;" d="M501.76-5.12c-33.28 0-64 5.12-94.72 15.36-181.76 58.88-281.6 253.44-222.72 435.2 28.16 87.04 89.6 158.72 171.52 202.24 81.92 40.96 176.64 48.64 263.68 20.48 179.2-58.88 273.92-256 215.04-442.88l-48.64 15.36c51.2 158.72-28.16 330.24-181.76 378.88-153.6 51.2-320-33.28-371.2-189.44-51.2-153.6 33.28-320 189.44-371.2 61.44-20.48 135.68-15.36 207.36 15.36l17.92-48.64c-46.08-20.48-97.28-30.72-145.92-30.72zM486.4 555.52h51.2v-419.84h-51.2z"  horiz-adv-x="1024" />

    
    <glyph glyph-name="zhcc_yonghuming" unicode="&#59007;" d="M831.0784 542.3104c0 176.3328-141.1072 317.44-317.44 317.44s-317.44-141.1072-317.44-317.44c0-119.808 63.488-222.208 162.2016-275.0464-133.7344-53.0432-236.1344-169.3696-264.192-317.44-3.4816-17.6128 6.9632-38.7072 28.2624-42.3936h6.9632c17.6128 0 31.744 10.6496 35.2256 28.2624 31.744 165.6832 176.3328 285.696 345.4976 289.1776h6.9632c172.8512 0 313.9584 141.1072 313.9584 317.44z m-564.224 0c0 137.4208 109.3632 246.784 246.784 246.784s246.784-109.3632 246.784-246.784c0-133.9392-109.3632-243.3024-243.3024-246.784h-10.6496c-133.7344 3.4816-239.616 112.64-239.616 246.784z m479.6416-320.9216c-17.6128 10.6496-38.7072 6.9632-49.3568-10.6496-10.6496-17.6128-6.9632-38.7072 10.6496-49.3568 81.1008-56.32 137.4208-133.9392 155.2384-225.6896 3.4816-17.6128 17.6128-28.2624 35.2256-28.2624h6.9632c17.6128 3.4816 31.744 21.0944 28.2624 42.3936-21.2992 109.3632-88.2688 204.5952-186.9824 271.5648z m0 0"  horiz-adv-x="1024" />

    
    </font>
</defs>
</svg>
